<?xml version="1.0" standalone="no"?>
<!DOCTYPE svg PUBLIC "-//W3C//DTD SVG 20010904//EN"
 "http://www.w3.org/TR/2001/REC-SVG-20010904/DTD/svg10.dtd">
<svg version="1.0" xmlns="http://www.w3.org/2000/svg"
 width="400.000000pt" height="400.000000pt" viewBox="0 0 400.000000 400.000000"
 preserveAspectRatio="xMidYMid meet">
<metadata>
Created by potrace 1.15, written by Peter Selinger 2001-2017
</metadata>
<g transform="translate(0.000000,400.000000) scale(0.100000,-0.100000)"
fill="#000000" stroke="none">
<path d="M1990 1995 l0 -1995 78 0 c43 0 116 5 162 10 638 77 1164 419 1497
972 119 197 200 421 250 688 25 135 25 515 0 650 -79 426 -248 763 -527 1053
-213 222 -432 370 -710 481 -203 80 -478 136 -671 136 l-79 0 0 -1995z m1248
783 c9 -9 12 -133 12 -497 0 -443 2 -489 18 -521 31 -62 96 -76 182 -39 67 29
80 22 80 -43 0 -29 -4 -58 -8 -64 -15 -23 -78 -47 -139 -52 -125 -10 -215 33
-260 127 l-28 56 -3 509 c-2 280 -1 515 2 523 7 17 127 18 144 1z m-620 -313
c76 -18 158 -58 172 -84 14 -27 13 -74 -3 -95 -13 -17 -16 -17 -73 12 -92 47
-168 65 -240 59 -121 -9 -166 -59 -168 -185 l-1 -77 140 -7 c207 -9 305 -48
362 -145 24 -42 28 -58 28 -128 0 -63 -5 -89 -22 -122 -50 -93 -149 -139 -282
-131 -81 5 -148 32 -209 82 -16 15 -33 26 -36 26 -3 0 -6 -20 -6 -44 0 -48 -9
-56 -65 -56 -69 0 -65 -21 -65 330 0 174 5 341 10 371 18 95 87 170 178 195
64 17 204 17 280 -1z"/>
<path d="M2300 1891 l0 -88 46 -42 c58 -54 116 -81 177 -81 102 0 157 51 157
147 0 44 -5 58 -31 88 -42 48 -105 65 -241 65 l-108 0 0 -89z"/>
<path d="M805 2795 c-5 -2 -22 -6 -37 -9 l-28 -6 0 -478 c0 -262 -5 -495 -10
-516 -14 -62 -40 -81 -108 -80 -37 0 -71 8 -97 21 -22 11 -46 18 -52 16 -16
-6 -18 -106 -3 -133 17 -32 102 -53 191 -48 150 9 219 82 239 254 15 135 13
936 -2 956 -12 15 -70 29 -93 23z"/>
<path d="M1432 2479 c-73 -11 -156 -40 -204 -72 -28 -19 -33 -29 -36 -68 -5
-73 13 -79 101 -35 164 81 325 69 371 -28 8 -18 19 -65 22 -105 l7 -71 -59 0
c-318 -1 -484 -96 -484 -279 0 -162 107 -261 283 -261 87 0 149 20 217 72 28
21 52 38 55 38 2 0 5 -21 7 -47 3 -48 3 -48 42 -51 22 -2 50 -1 63 2 l23 6 0
334 c0 355 -4 392 -51 460 -58 85 -201 127 -357 105z m258 -588 l0 -89 -47
-42 c-64 -56 -96 -71 -163 -77 -103 -10 -170 44 -170 137 0 76 47 129 135 151
17 4 78 7 138 8 l107 1 0 -89z"/>
</g>
</svg>
