<?xml version="1.0" encoding="UTF-8" standalone="no"?>
<svg
   xmlns:dc="http://purl.org/dc/elements/1.1/"
   xmlns:cc="http://creativecommons.org/ns#"
   xmlns:rdf="http://www.w3.org/1999/02/22-rdf-syntax-ns#"
   xmlns:svg="http://www.w3.org/2000/svg"
   xmlns="http://www.w3.org/2000/svg"
   xmlns:xlink="http://www.w3.org/1999/xlink"
   xmlns:sodipodi="http://sodipodi.sourceforge.net/DTD/sodipodi-0.dtd"
   xmlns:inkscape="http://www.inkscape.org/namespaces/inkscape"
   width="125mm"
   height="125mm"
   viewBox="0 0 125 125"
   version="1.1"
   id="svg8"
   sodipodi:docname="logo_color_v3.svg"
   inkscape:version="1.0.1 (3bc2e813f5, 2020-09-07)">
  <defs
     id="defs2">
    <linearGradient
       inkscape:collect="always"
       id="linearGradient1009">
      <stop
         style="stop-color:#14dce6;stop-opacity:1"
         offset="0"
         id="stop1005" />
      <stop
         style="stop-color:#783278;stop-opacity:1"
         offset="1"
         id="stop1007" />
    </linearGradient>
    <linearGradient
       inkscape:collect="always"
       xlink:href="#linearGradient1009"
       id="linearGradient1011"
       x1="5.6696429"
       y1="0.56696427"
       x2="121.14137"
       y2="123.59821"
       gradientUnits="userSpaceOnUse" />
  </defs>
  <sodipodi:namedview
     id="base"
     pagecolor="#ffffff"
     bordercolor="#666666"
     borderopacity="1.0"
     inkscape:pageopacity="0.0"
     inkscape:pageshadow="2"
     inkscape:zoom="1.4"
     inkscape:cx="184.02853"
     inkscape:cy="277.0814"
     inkscape:document-units="mm"
     inkscape:current-layer="layer1"
     inkscape:document-rotation="0"
     showgrid="false"
     inkscape:window-width="1920"
     inkscape:window-height="1017"
     inkscape:window-x="-8"
     inkscape:window-y="-8"
     inkscape:window-maximized="1" />
  <metadata
     id="metadata5">
    <rdf:RDF>
      <cc:Work
         rdf:about="">
        <dc:format>image/svg+xml</dc:format>
        <dc:type
           rdf:resource="http://purl.org/dc/dcmitype/StillImage" />
        <dc:title></dc:title>
      </cc:Work>
    </rdf:RDF>
  </metadata>
  <g
     inkscape:label="Calque 1"
     inkscape:groupmode="layer"
     id="layer1">
    <path
       style="fill:url(#linearGradient1011);stroke-width:0.264583;fill-opacity:1"
       d="m 32.871498,123.76766 c -0.915813,-0.48343 -1.277134,-1.08907 -4.531146,-7.59508 C 24.566248,108.62672 6.4620781,67.895301 5.9323831,65.758321 c -0.399644,-1.61231 -0.03773,-2.9681 1.154888,-4.32641 2.5500632,-2.90437 6.9211369,-2.41326 8.6509719,0.97196 0.260262,0.50932 4.723598,10.5701 9.918525,22.35729 5.194924,11.787192 9.534472,21.524529 9.643438,21.638539 0.108969,0.11401 4.105322,-7.565517 8.88079,-17.065629 12.275231,-24.4198 18.436641,-36.566374 18.626291,-36.719785 0.09,-0.07276 5.84705,-11.529222 12.79355,-25.458802 12.40373,-24.8727956 12.64883,-25.3361236 13.68164,-25.8630236 1.40608,-0.71732907 3.64913,-0.71767107 5.05436,-7.67e-4 0.99181,0.505984 1.24657,0.928472 4.58676,7.6067709 3.774563,7.5468057 21.878853,48.2783667 22.408593,50.4155467 0.39965,1.6123 0.0377,2.96809 -1.15488,4.32641 -2.55007,2.90436 -6.92114,2.41326 -8.65098,-0.97196 -0.26026,-0.50933 -4.7236,-10.570108 -9.91852,-22.357297 -5.194913,-11.787192 -9.534743,-21.524807 -9.644033,-21.639149 -0.1093,-0.114342 -4.22557,7.803315 -9.14727,17.594793 -4.92169,9.791478 -11.07427,21.969873 -13.6724,27.063103 -2.59813,5.09323 -10.4361,20.65749 -17.417721,34.587242 -12.449072,24.838427 -12.714126,25.337157 -13.744893,25.863017 -1.395018,0.71169 -3.749,0.70592 -5.109995,-0.0125 z m 40.153499,0.0486 c -1.28084,-0.59115 -2.08692,-1.42876 -2.6332,-2.73619 -0.3594,-0.86014 -0.40879,-3.87075 -0.40369,-24.602637 0.005,-22.428752 0.0306,-23.676052 0.4958,-24.680892 0.2695,-0.58209 0.83243,-1.37944 1.25096,-1.7719 1.70037,-1.59446 0.79654,-1.53539 23.49361,-1.53539 13.452903,0 21.219673,0.0974 22.055663,0.27674 1.59159,0.34133 3.13513,1.5676 3.79109,3.01183 1.40253,3.08799 -0.53028,6.63729 -3.96962,7.28954 -0.87711,0.16634 -8.15577,0.2698 -18.981303,0.2698 h -17.55868 l -0.006,20.439072 c -0.005,19.305597 -0.0329,20.497747 -0.49426,21.497387 -1.21884,2.64087 -4.3655,3.77725 -7.04056,2.54264 z M 9.7778983,56.285311 c -1.3883612,-0.31276 -2.9714532,-1.632178 -3.5885492,-2.99085 -1.402535,-3.087992 0.530278,-6.637288 3.9696129,-7.289544 0.877108,-0.166341 8.15577,-0.269798 18.981318,-0.269798 h 17.558679 l 0.0058,-20.439064 c 0.0055,-19.3056077 0.0329,-20.4977537 0.494263,-21.4973966 1.872983,-4.05820507 7.710205,-4.05820507 9.583185,0 0.46319,1.0035919 0.48875,2.2801939 0.49427,24.6808956 0.006,25.838186 0.076,24.638697 -1.52958,26.350908 -0.392467,0.418529 -1.189823,0.981459 -1.771906,1.250959 -1.003435,0.46458 -2.149414,0.48882 -22.092709,0.46747 -11.599768,-0.0124 -21.514292,-0.13064 -22.1043737,-0.26358 z"
       id="path1003" />
  </g>
</svg>
