<?xml version="1.0" standalone="yes"?>
<svg xmlns="http://www.w3.org/2000/svg" width="488" height="502">
<path style="fill:#000000; stroke:none;" d="M0 0L0 502L488 502L488 0L0 0z"/>
<path style="fill:#04fafc; stroke:none;" d="M174 40C176.596 38.5412 177.478 37.8994 178 35C180.358 35.6591 181.243 36.2666 183 38C184.015 36.8606 184.309 36.3885 185 35C186.478 35.9857 186.203 36 188 36L188 33C190.874 35.3946 189.787 35.213 192 33L192 35L194 32C194.698 33.3963 194.302 33.3965 195 32C195.986 33.4785 196 33.2032 196 35C197.272 33.5984 197.926 31.6537 199.306 30.3055C201.605 28.0591 205.082 29.5374 205 26C206.195 27.2228 206.316 27.42 207 29L214 29C213.302 23.5982 212.311 18.308 208.66 14.0432C200.766 4.8241 186.234 4.8241 178.34 14.0432C172.063 21.3748 174 31.1192 174 40z"/>
<path style="fill:#10e6f0; stroke:none;" d="M318 47L326 46C325.402 44.8046 325.534 45.0226 324 44C327.666 42.2296 329.324 40.0079 330 36C332.253 37.3634 333.365 37.3373 336 37C335.35 35.7003 335.853 36 334 36C338.079 35.086 341.826 34.5697 346 35C347.277 33.0851 347.277 33.915 346 32C349.371 31.8631 352.215 32.0965 354 29L356 30C357.223 28.8048 357.42 28.6836 359 28C358.043 29.5168 357.613 30.3384 357 32C359.27 32.4243 360.766 32.5338 363 32L361 28L367 31C369.039 15.9676 350.325 7.07654 338 12.9197C329.859 16.7792 327.185 25.3906 323.691 33C321.553 37.6582 319.192 41.9821 318 47z"/>
<path style="fill:#09f2f5; stroke:none;" d="M205 26C205 29.6364 201.579 27.5512 199.167 29.5C197.537 30.8163 197.351 33.0961 197 35C196.014 33.5215 196 33.7968 196 32C193.668 32.4771 193.376 32.6467 193 35C191.977 33.466 192.195 33.5977 191 33C189.689 34.0285 189.821 33.7303 188 33C186.723 34.9151 186.723 34.085 188 36L185 35L183 38C181.461 35.821 180.645 35.4266 178 35C176.155 41.5753 169.673 48.5632 179 53C179 51.2032 178.986 51.4785 178 50C180.121 49.7535 181.874 49.7695 184 50C184.986 48.5215 185 48.7968 185 47L190 49L191 48L189 44C195.446 47.2111 201.488 44.9566 208 47C210.115 45.4268 211.47 44.6482 214 44L214 29L207 29L207 26L205 26z"/>
<path style="fill:#14deea; stroke:none;" d="M356 30L354 29C351.602 31.3076 349.268 31.633 346 32L346 35C341.858 33.8991 338.194 35.0244 334 35C334.65 36.2997 334.147 36 336 36C333.533 36.7799 332.421 36.8924 330 36C330.009 35.9739 329.568 39.9727 330 39C328.669 41.9956 321.196 44.0391 326 45C323.373 45.8918 319.846 46.1708 317.638 47.9383C313.709 51.0832 311.352 59.3035 310 64C314.059 62.7752 318.011 63.5077 322 62L320 58C323.212 58.4071 325.799 59.604 329 59C328.242 56.7669 327.253 55.0028 326 53C328.434 53.6514 329.283 54.1601 331 56L336 55L333 53C337.411 51.3899 341.304 50.7248 346 51L347 48L349 48L350 49L349 53L350 54L356 53L355 51C358.692 50.8796 360.777 50.6867 362 47C364.584 46.678 366.602 46.0271 369 45C368.35 43.7003 368.853 44 367 44C369.445 43.2034 371.433 42.847 374 43L369 29C367.686 29.7679 367.768 29.6858 367 31C364.99 29.7386 363.222 28.8102 361 28C361.613 29.6614 362.043 30.4834 363 32C360.93 32.2388 359.072 32.2194 357 32L359 28C356.908 28.4057 356.98 28.2167 356 30z"/>
<path style="fill:#18d8e6; stroke:none;" d="M367 43C367.598 44.1955 367.466 43.9774 369 45L362 47C360.257 50.1678 358.565 50.7312 355 51L356 53L350 54L349 53L350 49L349 48L347 48C346.014 49.4785 346 49.2032 346 51C341.348 50.2602 337.228 50.9537 333 53C334.248 53.6848 334.548 53.7488 336 54L331 56C329.554 53.7173 328.689 53.4176 326 53L329 59L320 58L322 62C318.635 62.9544 314.228 61.9915 311.221 63.5494C306.662 65.911 303.838 75.2993 303 80L310 79C311.785 77.0927 313.43 76.6731 314 74C316.69 76.1381 318.618 76.0686 322 76C322 74.2032 321.986 74.4785 321 73L326 72C325.35 70.7003 325.853 71 324 71C326.2 70.2253 327.669 69.9734 330 70C331.277 68.0851 331.277 68.915 330 67C331.915 67.5066 333.304 68.0027 335 69C337.305 67.5331 338.353 66.4064 335 66C339.705 64.7693 345.5 64.0617 350 66C352.49 64.4677 354.655 63.9013 355 61C363.47 59.9352 371.243 55.5769 380 58C379.135 49.559 375.987 42.5065 367 43z"/>
<path style="fill:#0ceaf2; stroke:none;" d="M189 44C189.613 45.6616 190.043 46.4832 191 48L190 49C188.144 47.9519 187.056 47.4875 185 47L184 50C181.64 49.52 180.337 49.4807 178 50L179 53C177.255 52.11 175.875 51.5471 174 51L174 72C175.613 71.0184 175.493 70.8896 177 72C179.692 68.3091 181.885 69.217 185.972 68.3333C191.833 67.0662 192.291 65.3492 198 68L198 63C199.023 64.5339 198.805 64.4023 200 65L201 61L203 64L210 59C211.409 60.326 211.969 60.1528 214 60L214 44C211.157 44.4213 209.988 44.939 208 47C204.593 45.0123 200.864 46.36 196.996 46.1644C194.172 46.0216 191.636 44.9269 189 44z"/>
<path style="fill:#19d4e4; stroke:none;" d="M355 61C354.635 63.7943 352.284 63.7132 351 66C345.921 63.6004 340.513 65.0659 335 65C336.248 65.6848 336.548 65.7488 338 66C336.814 67.1862 336.472 67.5838 336 69C333.922 67.8908 332.323 67.358 330 67L330 70C327.779 69.6096 326.246 69.6646 324 70C324.65 71.2997 324.147 71 326 71L321 73L322 76C319.167 75.5718 317.137 76.0021 315 74C313.306 75.7207 311.279 77.0335 310 79C304.651 78.5345 301.55 80.9476 300 86C305.569 85.0616 312.518 82.9011 318 84C319.835 81.6932 321.671 79.6189 323 77C324.023 78.5339 323.805 78.4023 325 79L325 77L326 79C327.85 78.7979 329.15 78.7979 331 79L331 75C331.986 76.4785 332 76.2032 332 78C333.528 76.5258 333.84 76.0817 334 74C335.635 74.545 335.455 74.3648 336 76C338.433 74.5381 339.177 73.712 340 71L341 75C342.056 73.2762 342.036 73.0793 342 71C344.842 71.7118 347.347 72.7567 350 74C350.224 72.3162 350.218 71.6865 350 70L354 73C357.187 71.0972 359.806 69.8628 360 66C361.635 66.545 361.455 66.3648 362 68C364.177 67.2439 365.285 66.5505 367 65L368 67C369.622 65.9235 370.498 64.8705 372 66C373.607 64.5503 374.064 63.9485 375 62L376 64C376.685 62.7516 376.749 62.4517 377 61L379 64L382 61L381 57C371.646 56.3952 363.907 58.8185 355 61z"/>
<path style="fill:#10e4ee; stroke:none;" d="M208 59L203 64L202 61C200.919 62.458 200.564 63.248 200 65L199 63C197.909 64.9276 197.835 65.7704 198 68C196.805 66.7772 196.684 66.58 196 65C190.661 65.6096 179.713 67.3692 177 72C175.977 70.466 176.195 70.5977 175 70C173.522 76.2076 174 82.6538 174 89C178.088 86.8344 181.718 87.2257 186 86L185 83L190 85C190.224 83.3161 190.218 82.6865 190 81C195.375 82.6695 200.424 80.4922 206 81C207.277 79.0851 207.277 79.915 206 78C208.066 78.0806 209.053 78.2861 211 79C215.694 74.4033 214 66.166 214 60C212.128 60.0078 211.388 60.1142 210 59L208 59z"/>
<path style="fill:#1cd2e2; stroke:none;" d="M377 61L377 64C375.977 62.4661 376.195 62.5977 375 62L372 66C370.412 64.2896 369.64 65.4695 368 67L367 65C364.391 66.5471 362.935 66.7439 360 66C359.566 69.2241 357.062 70.6075 355 73C353.232 71.6515 352.018 70.8781 350 70L350 74C347.315 72.3481 345.114 71.4833 342 71L342 75L341 71L337 76L336 74L334 74C334.062 75.7387 333.522 76.3751 333 78C332.014 76.5216 332 76.7967 332 75C331.317 76.506 331.174 77.3148 331 79C329.137 78.4333 327.467 78.186 326 77C324.7 77.6498 325 77.1469 325 79C323.977 77.4661 324.195 77.5977 323 77C321.251 79.3396 319.415 81.442 318 84C311.241 81.2469 299.212 84.7321 297 92C302.134 89.5161 307.654 88.8969 313 87C314.896 89.1588 317.211 88.7848 320 89C322.156 86.5419 323.79 85.641 327 85C325.752 84.3152 325.452 84.2512 324 84C328.316 83.2335 332.691 83.4832 336.985 82.1898C344.58 79.9024 349.76 76.9969 358 78C358.716 72.5206 369.949 73.8819 374 72.2222C376.176 71.3307 377.473 69.5059 380 69.5C381.95 69.4955 384.145 70.4699 386 71C385.401 67.5218 384.128 64.3394 383 61L380 61L379 64L377 61z"/>
<path style="fill:#1cd0e0; stroke:none;" d="M358 78C346.05 75.3927 336.04 83.6937 324 83C325.248 83.6848 325.548 83.7488 327 84C323.869 85.2867 321.723 86.0366 320 89C317.303 88.6183 315.238 88.5204 313 87C303.145 89.2168 296.135 90.1414 293 101C296.044 100.365 297.316 99.6139 299 97L304 101C305.277 99.0851 305.277 99.9149 304 98C306.202 97.5597 309.791 95.7583 306 95C312.403 91.3292 318.934 92.2244 326 91C324.752 90.3152 324.452 90.2512 323 90C329.043 86.7189 336.315 85.092 343 87L347 80C348.15 82.2888 349.361 84.0193 351 86L358 82C356.494 81.317 355.685 81.1741 354 81C359.723 79.5383 366.086 80.0672 372 79C371.35 77.7003 371.853 78 370 78C374.298 77.1237 381.761 79.3446 383 74L388 74L387 70C384.299 70.1716 381.642 69.0634 379 69.3519C376.777 69.5946 375.085 71.0763 373.019 71.7639C370.382 72.6409 367.653 72.4977 364.981 73.4768C361.911 74.602 358.426 74.591 358 78z"/>
<path style="fill:#20cade; stroke:none;" d="M383 74C383 79.2505 373.673 77.0993 370 77C370.598 78.1954 370.466 77.9774 372 79C365.949 79.4094 360.074 80.0744 354 80C355.506 80.683 356.315 80.8259 358 81C355.759 82.5546 353.833 83.9938 352 86C350.814 84.8136 350.416 84.4721 349 84C350.585 89.5049 353.168 95.0233 356 100C359.706 99.5106 361.865 99.9651 365 102C365.036 99.9206 365.056 99.7238 364 98C364.884 95.9004 365.035 95.2599 365 93L370 97C373.195 95.1655 376.633 92.6426 380.335 92.0046C384.512 91.2847 387.749 92.6117 392 91C392.228 88.8788 392.15 89.1097 394 88C392.212 81.747 390.295 74.5631 383 74z"/>
<path style="fill:#14deea; stroke:none;" d="M206 78L206 81C200.34 79.8094 195.544 82.2676 190 81L190 85C188.144 83.9519 187.056 83.4875 185 83C185 84.7968 185.014 84.5215 186 86C182.763 86.4487 177.753 85.5295 175.514 88.3719C172.909 91.6781 172.291 110.07 179 104C180.186 105.186 180.584 105.528 182 106L183 105C182.528 103.584 182.186 103.186 181 102C187.085 100.405 193.018 100.179 199 99L198 97L199 96C201.079 96.0358 201.276 96.0555 203 95C204.657 96.6642 205.971 97.8745 208 99C207.792 97.339 207.505 97.4601 209 97C208.35 95.7003 208.853 96 207 96L209 95C208.35 93.7002 208.853 94 207 94C208.036 92.8137 208.339 92.3963 209 91L213 95C215.191 89.7775 214 82.6323 214 77C212.365 77.5451 212.545 77.3648 212 79C209.6 77.8763 208.627 77.6852 206 78z"/>
<path style="fill:#20cade; stroke:none;" d="M323 89C324.248 89.6848 324.548 89.7488 326 90C319.595 92.4455 312.55 91.6604 306 94C306.598 95.1954 306.466 94.9774 308 96C305.506 97.1606 304.656 98.3295 304 101L299 97C296.763 99.3571 295.186 100.355 292 101C290.105 107.577 286.029 113.138 285 120C287.075 118.83 288.637 118.308 291 118C289.521 118.986 289.797 119 288 119C290.959 120.575 293.737 119.901 297 120C297 118.203 296.986 118.478 296 117L304 116C303.402 114.805 303.534 115.023 302 114C303.662 113.387 304.483 112.957 306 112C309.223 115.283 313.157 112.317 315 109C316.672 109.338 316.31 109.537 317 108L322 109C321.402 107.805 321.534 108.023 320 107C321.396 106.339 321.814 106.036 323 105C323.613 106.661 324.043 107.483 325 109C327.83 107.577 331.883 106.86 334.351 104.988C338.51 101.833 341.586 91.9081 343 87C336.797 84.2812 329.152 86.7692 323 89z"/>
<path style="fill:#25c0d6; stroke:none;" d="M392 91C384.192 93.028 377.164 90.2346 371 97C368.988 95.2419 367.419 94.084 365 93C364.983 94.9655 364.931 95.2986 364 97C364.642 98.811 364.949 100.092 365 102C361.977 99.391 359.868 99.1693 356 100C357.689 105.865 360.683 111.353 363 117C366.049 116.82 368.28 117.225 369 114C369.986 115.479 370 115.203 370 117C372.796 114.938 374.608 113.813 378 115L378 113C379.023 114.534 378.805 114.402 380 115L381 112C382.416 112.472 382.814 112.814 384 114L391 109L392 110L393 108L394 111C395.255 109.25 395.614 108.143 396 106C396.986 107.478 397 107.203 397 109C398.513 108.429 399.427 108.136 401 108C402.33 101.121 396.873 94.5034 395 88C392.396 88.4778 391.974 88.4827 392 91z"/>
<path style="fill:#18d6e6; stroke:none;" d="M209 91L207 94L209 94L207 95C207.65 96.2997 207.147 96 209 96C208.001 97.4933 208.032 97.2664 208 99L204 95C202.189 95.6415 200.908 95.9493 199 96C197.723 97.915 197.723 97.085 199 99C192.507 99.2709 187.222 99.5696 181 102C181.472 103.416 181.814 103.814 183 105L182 106L180 104C177.879 105.098 176.363 105.811 174 106L174 130C175.923 129.098 175.999 128.924 177 127C181.24 129.15 185.9 130.405 189 126C191.018 126.34 191.968 126.323 194 126C192.861 124.985 192.388 124.691 191 124C192.186 122.814 192.584 122.472 194 122L193 124C198.5 122.865 208.227 122.148 212.397 118.101C214.654 115.911 213.999 111.845 214 109C214.003 101.967 215.319 95.4595 209 91z"/>
<path style="fill:#25c0d6; stroke:none;" d="M322 105C320.61 107.316 318.872 107.374 322 108C320.153 108.21 318.857 108.194 317 108C316.274 110.179 316.561 109.78 315 109C312.743 111.631 309.268 114.532 306 112L302 114C302.598 115.195 302.466 114.977 304 116L296 117L297 120L288 120C289.478 119.014 289.203 119 291 119C288.912 116.912 286.937 118.063 285 120L284 119C281.176 125.885 273.54 135.819 277 143C281.109 141.134 285.482 140.957 289 138C291.306 139.975 295.023 138.03 298 138C298.726 135.821 298.439 136.22 300 137L301 134C302.985 135.277 303.85 135.981 305 138C306.65 136.218 308.527 133.397 311 134C312.3 133.35 312 133.853 312 132C313.023 133.534 312.805 133.402 314 134L315 130L321 131L321 129C322.478 129.986 322.203 130 324 130C327.132 121.928 331.712 114.367 334 106C330.588 106.184 328.506 106.649 326 109L322 105z"/>
<path style="fill:#29b9d2; stroke:none;" d="M396 106L395 111L393 108C390.079 109.826 387.075 111.076 385 114C383.483 113.043 382.661 112.613 381 112C380.014 113.478 380 113.203 380 115C378.977 113.466 379.195 113.598 378 113L378 115L377 113C374.057 113.781 372.579 114.395 371 117C370.014 115.521 370 115.797 370 114C369.315 115.248 369.251 115.548 369 117C366.982 116.66 366.032 116.677 364 117C364.955 123.225 368.542 129.209 371 135C372.205 137.839 372.895 140.591 376 141L377 146C378.845 144.308 379.388 141.172 382 143L383 139L385 142C387.013 141.499 388.039 141.363 390 142L391 137C393.203 139.754 392.758 139.242 395 137L395 139L397 136C398.245 137.591 398.182 137.883 399 136C399.986 137.478 400 137.203 400 139C400.683 137.494 400.826 136.685 401 135C401.986 136.479 402 136.203 402 138C402.911 136.623 403.404 135.56 404 134L408 136L407 134C409.698 135.107 412.109 135.686 415 136C412.507 125.503 405.962 116.363 403 106C399.995 107.256 398.28 108.587 396 106z"/>
<path style="fill:#20cade; stroke:none;" d="M213 118C206.512 120.709 199.746 122.1 193 124L194 122C192.203 122 192.479 122.014 191 123C192.223 124.195 192.42 124.316 194 125C192.053 125.714 191.066 125.919 189 126C184.979 129.783 181.754 128.796 177 127C171.019 135.599 174 150.85 174 161C179.29 160.434 184.027 158.586 188 155C190.328 157.516 197.508 155.312 198 152C201.096 152.499 203.858 153.216 207 153C206.402 151.805 206.534 152.023 205 151C208.159 150.063 210.715 149.677 214 150L214 130C214 126.017 214.552 121.699 213 118z"/>
<path style="fill:#29b9d2; stroke:none;" d="M321 129C319.087 130.353 317.33 130.196 315 130L314 134C312.977 132.466 313.195 132.598 312 132L312 134L311 132C308.377 133.762 306.965 134.988 306 138C304.476 135.807 303.475 135.002 301 134C300.014 135.479 300 135.203 300 137C298.328 136.662 298.69 136.463 298 138C295.17 137.802 291.297 139.437 289 138C285.191 140.45 280.582 140.346 277 143C275.777 141.805 275.58 141.684 274 141C270.821 148.646 266.29 156.05 264 164C267.303 163.521 269.224 162.897 271 160C271.562 161.801 271.824 163.122 272 165C272.683 163.494 272.826 162.685 273 161C274.195 162.223 274.316 162.42 275 164C276.485 161.764 277.287 159.591 278 157L280 160C280.479 158.502 280.4 158.65 280 157C282.789 157.527 284.376 157.675 286 160C286.685 158.752 286.749 158.452 287 157C289.002 157.156 291.242 156.429 293 157C293.683 155.494 293.826 154.685 294 153C296.112 154.134 295.741 154.028 298 153L298 157C298.683 155.494 298.826 154.685 299 153C300.688 153.689 301.069 153.676 302 155C303.888 153.44 304.928 152.196 306 150C307.023 151.534 306.805 151.402 308 152C309.705 150.626 309.703 149.938 311 151C312.607 149.996 313.035 149.804 315 150C316.695 144.115 324.531 134.739 321 129z"/>
<path style="fill:#30acca; stroke:none;" d="M404 134L403 138C402.014 136.522 402 136.797 402 135C401.317 136.506 401.174 137.315 401 139C400.014 137.521 400 137.797 400 136C397.62 137.388 396.391 135.776 396 139C394.977 137.466 395.195 137.598 394 137C392.846 138.038 393.154 138.038 392 137C390.938 138.693 390.48 140.04 390 142C388.977 140.466 389.195 140.598 388 140L385 142L384 139C382.919 140.458 382.564 141.248 382 143C380.977 141.466 381.195 141.598 380 141C379.11 142.745 378.547 144.125 378 146C377.11 144.255 376.547 142.875 376 141C374.745 144.626 376.654 147.626 378.14 151C380.886 157.235 384.125 163.443 386 170C389.629 168.33 393.025 166.422 397.039 165.811C400.464 165.29 403.623 165.931 407 165C405.503 164.521 405.65 164.6 404 165C407.427 162.155 410.864 162.243 415 161.174C418.404 160.295 420.38 158.684 424 159C424.637 153.575 419.703 140.536 415.351 136.879C413.189 135.062 409.66 134.677 407 134L408 136C406.365 135.455 406.545 135.635 406 134L404 134z"/>
<path style="fill:#28bcd4; stroke:none;" d="M207 153L198 152C198 154.998 189.382 157.512 188 155C184.023 157.607 179.81 159.942 175 160C172.941 166.967 174.854 173.912 175 181L183 181C182.528 179.584 182.186 179.186 181 178L190 179C193.477 176.79 195.854 174.651 200 176C201.277 174.085 201.277 174.915 200 173L205 174C205.726 171.821 205.439 172.22 207 173C208.366 171.458 209.259 169.742 211 171C212.513 170.429 213.427 170.136 215 170C215 165.583 214.121 161.372 214 157C213.947 155.097 214.565 152.121 213.278 150.5C211.278 147.981 204.449 149.302 207 153z"/>
<path style="fill:#2cb4ce; stroke:none;" d="M310 149C308.104 150.673 307.981 151.387 306 150L302 155C301.169 153.428 300.827 153.396 299 153L299 157L298 153C296.135 153.676 296.137 154.096 295 153C294.317 154.506 294.174 155.315 294 157C292.977 155.466 293.195 155.598 292 155C289.727 156.717 287.621 157.207 287 160C286.014 158.522 286 158.797 286 157L280 157L281 160C279.814 158.814 279.472 158.416 279 157C277.201 159.248 276.507 161.163 276 164C274.889 162.258 274.73 161.881 273 161L273 165C272.438 163.199 272.176 161.878 272 160C269.382 161.864 265.773 163.12 263.598 165.454C260.299 168.996 258.72 174.566 257 179L265 181C265.986 179.521 266 179.797 266 178L268 179L269 176L265 176C267.763 175.165 269.214 175.22 272 176C272.986 174.522 273 174.797 273 173C275.116 173.281 274.938 173.6 276 172L277 174C278.255 172.25 278.614 171.143 279 169C280.186 170.186 280.584 170.528 282 171L282 167L283 171C285.225 169.609 287.143 169.063 289 167L289 169C290.3 168.35 290 168.853 290 167L291 171C293.232 167.662 295.606 166.091 299 164L299 168C299.683 166.494 299.826 165.685 300 164L303 167C308.53 165.545 308.964 161.665 311.167 157C312.2 154.812 314.092 152.731 313.5 150.167C312.998 147.99 311.911 151.204 312 151C310.977 149.466 311.195 149.598 310 149z"/>
<path style="fill:#38a0c2; stroke:none;" d="M404 165L407 164C400.86 167.014 393.59 165.7 387 169C388.285 176.233 392.643 188.976 399 193L399 186C399.722 188.418 399.948 190.472 400 193C400.911 191.623 401.404 190.56 402 189C403.186 190.036 403.604 190.339 405 191L405 187L406 191C406.779 189.231 406.912 187.964 407 186C407.562 187.801 407.824 189.122 408 191C408.685 189.752 408.749 189.452 409 188C409.986 189.479 410 189.203 410 191C410.683 189.494 410.826 188.685 411 187C412.186 188.186 412.528 188.584 413 190C415.465 188.151 414.558 189.442 417 187L417 189C419.204 186.932 420.108 187.106 423 188L425 182C426.635 182.545 426.455 182.365 427 184C428.92 182.703 429.316 182.209 430 180C431.023 181.534 430.805 181.402 432 182L432 180C433.023 181.534 432.805 181.402 434 182C434.927 174.485 428.732 164.418 425 158C419.34 158.446 407.601 160.484 404 165z"/>
<path style="fill:#30acca; stroke:none;" d="M298 164C294.714 166.068 292.66 167.026 292 171L291 167C289.805 167.598 290.023 167.466 289 169L289 167C286.398 168.951 284.469 168.653 284 171L283 167C282.317 168.506 282.174 169.315 282 171C280.814 169.814 280.416 169.472 279 169L278 174C276.977 172.466 277.195 172.598 276 172C274.802 173.245 274.866 173.074 273 173L272 176C269.158 174.713 267.751 174.452 265 176C266.684 176.224 267.313 176.218 269 176C268.014 177.479 268 177.203 268 179L266 178L265 181C262.362 180.103 259.738 179.531 257 179C251.588 188.308 245.98 199.655 243 210C248.183 208.748 259.579 207.941 261 202C269.335 203.891 276.659 198.701 285 199C287.291 197.551 290.409 198.045 292.452 196.204C295.399 193.548 297.024 188.556 298.576 185C301.458 178.394 305.014 171.946 307 165L303 167C302.098 165.077 301.924 165.001 300 164L300 168L298 164z"/>
<path style="fill:#29b9d2; stroke:none;" d="M210 169C208.608 170.406 207.927 171.271 207 173L205 172L205 174L200 173L200 176C195.849 174.442 193.745 175.636 191 179C187.619 177.579 184.622 178.243 181 178C181.472 179.416 181.814 179.814 183 181C178.114 180.499 175.435 180.554 175 186L148 186C149.248 186.685 149.548 186.749 151 187C149.522 187.986 149.797 188 148 188L148 191C144.799 190.232 142.228 190.355 139 191C141.332 191.985 143.457 191.981 146 192C141.326 193.412 136.636 192.594 131.96 193.62C123.513 195.475 115.634 198.885 107 200C107.598 201.195 107.466 200.977 109 202C103.617 202.528 98.4381 203.375 93 203C91.2428 204.661 90.4232 204.983 88 205C86.7335 206.9 85.427 208.653 83 209C83.9407 208.866 80.8162 207.883 80 208L78 210L78 209C74.6586 209.557 73.4222 209.889 73 212C66.9278 210.81 61.2998 214.355 55.6651 216.295C52.0579 217.537 47.7787 217.524 44 218C44.6977 219.567 44.8739 220.286 45 222C40.6586 219.121 35.9707 219.354 33 224C31.5215 223.014 31.7968 223 30 223C36.7887 228.91 45.9674 226.194 54 226C55.4515 223.583 56.2749 223.154 59 224L59 222L60 224C61.6219 222.923 62.4984 221.87 64 223C65.8398 221.283 66.3486 220.434 67 218C67.9857 219.479 68 219.203 68 221C68.6848 219.752 68.7488 219.452 69 218C70.4566 219.103 70.8966 219.543 72 221C73.5279 219.526 73.8398 219.082 74 217C75.9818 216.535 76.4056 216.297 78 215C78.7283 216.821 79.7192 216.824 80 219C81.2549 217.25 81.6137 216.143 82 214C83.0226 215.534 82.8045 215.402 84 216C86.4659 214.058 88.0572 213.889 91 215L96 212L96 214C97.2997 213.35 97 213.853 97 212L104 211L104 207L106 210L107 206L108 210C108.683 208.494 108.826 207.685 109 206C109.986 207.478 110 207.203 110 209C111.081 207.542 111.436 206.752 112 205C113.659 207.074 113.433 207.837 114 205C114.986 206.478 115 206.203 115 208C115.683 206.494 115.826 205.685 116 204L118 207C121.138 204.677 123.068 202.37 127 204C127.986 202.522 128 202.797 128 201C130.913 201.5 132.317 202.123 133 199C134.023 200.534 133.805 200.402 135 201C136.677 200.512 137.335 201.111 139 202C139.644 199.68 139.83 198.481 142 200C144.183 197.813 146.909 197.881 149 196L151 198C154.295 196.655 157.497 195.642 161 195C161.518 191.125 166.098 193.448 167 189L168 193C170.049 191.719 170.768 191.552 171 189L172 193C173.356 191.096 175.063 189.129 175 187C177.508 187.165 178.689 186.975 181 186L182 190C183.255 188.25 183.614 187.143 184 185L186 188C187.433 186.914 187.898 185.959 189 187C189.911 185.623 190.404 184.56 191 183C192.023 184.534 191.805 184.402 193 185L194 183L195 185L197 182C200.118 183.498 201.494 181.855 203 179C205.116 179.281 204.938 179.6 206 178C209.202 179.6 211.5 179.177 215 179C214.998 175.514 214.99 172.35 214 169C212.584 169.472 212.186 169.814 211 171C211 169.147 211.3 169.65 210 169z"/>
<path style="fill:#2cb4d0; stroke:none;" d="M206 178C204.802 179.245 204.866 179.074 203 179C200.726 182.825 196.393 181.754 196 185C194.977 183.466 195.195 183.598 194 183L193 185C191.977 183.466 192.195 183.598 191 183L190 187C188.977 185.466 189.195 185.598 188 185L186 188L185 185C183.938 186.693 183.48 188.04 183 190L181 186C178.868 186.735 177.254 187.008 175 187C175 189.085 175.138 188.724 173 189L173 193L172 189C171.315 190.248 171.251 190.548 171 192C169.328 191.662 169.69 191.463 169 193L168 189C165.601 191.567 160.984 191.907 161 195C157.548 195.277 154.598 195.613 152 198C150.814 196.814 150.416 196.472 149 196C146.377 197.78 143.913 197.039 142 200C140.977 198.466 141.195 198.598 140 198L139 202C136.074 199.074 136.454 198.546 134 201L134 199C131.952 200.937 130.84 201.097 128 201L127 204C123.063 201.499 120.926 204.024 118 207L117 204C116.317 205.506 116.174 206.315 116 208C115.014 206.521 115 206.797 115 205C113.387 205.982 113.507 206.11 112 205L111 209C110.014 207.521 110 207.797 110 206C109.317 207.506 109.174 208.315 109 210L108 206C107.089 207.377 106.596 208.44 106 210C105.014 208.522 105 208.797 105 207C104.317 208.506 104.174 209.315 104 211C100.755 209.377 100.753 210.706 98 213L97 212L97 214L96 212C94.147 212.948 92.3944 213.511 91 215C88.4761 211.845 85.4437 213.556 83 216L83 214C81.9376 215.693 81.4805 217.04 81 219C80.0143 217.521 80 217.797 80 216C78.3389 216.208 78.4601 216.495 78 215L74 217C74.0751 219.102 73.4545 219.371 72 221C70.8806 218.392 69.6586 217.932 69 221C68.0143 219.522 68 219.797 68 218L64 223C62.4124 221.29 61.6402 222.469 60 224L60 222C58.7003 222.65 59 222.147 59 224C56.223 222.122 54.8845 222.809 54 226C52.3135 225.782 51.6839 225.776 50 226C54.2152 227.769 59.4645 227 64 227C72.9769 227 82.1454 227.644 91 226C90.4023 224.805 90.5339 225.023 89 224C90.3964 223.339 90.8137 223.036 92 222C92 223.797 92.0143 223.521 93 225L95 222L95 226L98 225L98 222C98.9857 223.479 99 223.203 99 225C99.683 223.494 99.8259 222.685 100 221C100.986 222.479 101 222.203 101 224C101.685 222.752 101.749 222.452 102 221C104.308 222.561 104.651 222.883 105 220C106.186 221.036 106.604 221.339 108 222L107 220C108.635 220.545 108.455 220.365 109 222C111.893 221.409 113.46 222.527 116 224L118 218L123 219C123.986 217.521 124 217.797 124 216C125.023 217.534 124.805 217.402 126 218L128 214C128.986 215.479 129 215.203 129 217C129.683 215.494 129.826 214.685 130 213C131.023 214.534 130.805 214.402 132 215C133.559 213.233 134.596 215.333 135 212C135.986 213.479 136 213.203 136 215C137.314 213.388 138.187 211.915 139 210C140.186 211.036 140.604 211.339 142 212L141 210C143.409 210.272 145.581 210.201 148 210C147.35 208.7 147.853 209 146 209C148.333 209.168 148.238 209.275 150 211C151.939 210.187 154.068 208.582 156 209C158.612 207.367 160.602 207.479 161 204C162.023 205.534 161.805 205.402 163 206C165.641 203.917 168.853 204.881 171 202C174.562 203.781 174.283 200.132 175 203C175.685 201.752 175.749 201.452 176 200C177.186 201.036 177.604 201.339 179 202C179.844 199.19 181.785 197.467 184 200C186.286 198.375 188.384 197.771 189 195C189.986 196.479 190 196.203 190 198C190.685 196.752 190.749 196.451 191 195C191.986 196.479 192 196.203 192 198C193.737 197.938 193.64 197.98 195 199L196 194C197.416 194.472 197.814 194.814 199 196C204.236 193.833 209.307 190.386 215 190C215 185.887 215.171 181.96 214 178C210.883 178.829 209.032 179.224 206 178z"/>
<path style="fill:#3c98bd; stroke:none;" d="M430 180L428 184C426.814 182.964 426.396 182.661 425 182C424.042 184.026 423.443 185.806 423 188C420.341 186.551 418.739 185.622 418 189C416.977 187.466 417.195 187.598 416 187C414.595 189.81 415.34 187.075 413 190C413 188.203 412.986 188.478 412 187C411.317 188.506 411.174 189.315 411 191C410.014 189.521 410 189.797 410 188C409.315 189.248 409.251 189.548 409 191C408.438 189.199 408.176 187.878 408 186C407.221 187.769 407.088 189.036 407 191L406 187C404.944 188.724 404.964 188.921 405 191L402 189L401 193C400.278 190.582 400.052 188.528 400 186C398.561 187.439 399.403 190.661 398 193L397 192C398.484 198.249 404.323 210.944 410 200C412.584 200.629 413.652 200.307 414 203C414.685 201.752 414.749 201.452 415 200C416.023 201.534 415.805 201.402 417 202C419.097 200.271 421.307 200.191 424 200C422.494 199.317 421.685 199.174 420 199C421.893 198.108 423.365 197.289 425 196C425 197.797 425.014 197.521 426 199C427.195 197.777 427.316 197.58 428 196L430 199C433.297 197.937 436.604 197.615 440 197L438 194C439.478 194.986 439.203 195 441 195C439.846 190.141 437.605 185.716 436 181C434.048 181.07 434.06 181.354 433 180C431.7 180.65 432 180.147 432 182C430.977 180.466 431.195 180.598 430 180z"/>
<path style="fill:#22c5da; stroke:none;" d="M20 203C23.8451 204.522 27.8902 204.374 32 204C30.7517 203.315 30.4515 203.251 29 203C32.2767 202.031 35.785 202.323 39 201.182C45.4134 198.906 49.8091 194.03 57 196L58 195C56.7772 193.805 56.58 193.684 55 193C57.3486 192.502 60.5818 193.377 61 191C66.4044 192.271 71.0514 191.437 76 189C74.4939 188.317 73.6852 188.174 72 188C74.1058 187.356 75.7952 187.094 78 187C72.7835 184.811 65.6192 186 60 186C43.4865 186 26.3685 184.333 20 203z"/>
<path style="fill:#24c1d8; stroke:none;" d="M72 187C73.506 187.683 74.3148 187.826 76 188C71.2094 191.144 66.625 191.994 61 191C61 193.956 57.5548 192.067 55 192L58 195L57 196C50.3692 193.044 44.9854 198.216 39 200.776C35.7828 202.153 32.4262 201.997 29 202C30.2484 202.685 30.5483 202.749 32 203C28.1133 204.304 23.925 204.206 20 203C20.0165 208.962 20.5166 212.786 25 217C27.8847 215.752 29.5157 215.174 30 212C31.3142 211.232 31.2321 211.314 32 210C33.9077 211.343 35.8654 212.057 38 213L39 211C40.0226 212.534 39.8046 212.402 41 213L43 208L44 212C44.7789 210.231 44.9124 208.964 45 207C45.9857 208.479 46 208.203 46 210L51 206L51 208C52.2997 207.35 52 207.853 52 206C53.1863 207.036 53.6037 207.339 55 208L54 206C56.5401 206.523 56.6855 206.595 57 204C57.9857 205.479 58 205.203 58 207C60.4971 205.932 61.5681 205.721 62 203C63.4127 204.065 64.2997 204.542 66 205C66.9857 203.521 67 203.797 67 202C67.9857 203.479 68 203.203 68 205C69.8191 203.636 69.031 203.508 71 204L72 203L71 201C73.1162 201.281 72.9375 201.6 74 200L75 202C76.8475 200.922 76.9662 201.051 79 202C79.2807 199.884 79.6001 200.062 78 199C80.3301 198.952 80.0061 198.797 81 201C81.6849 199.751 81.7488 199.452 82 198C84.7862 198.458 85.4553 198.369 87 196C88.0226 197.534 87.8046 197.402 89 198L90 196L91 198C92.7465 196.69 96.8473 194.384 101 193L102 194L102 192C109.008 192.424 115.919 188.437 123 188C117.765 185.799 110.656 186.002 105 186C93.9195 185.996 83.0242 186.527 72 187z"/>
<path style="fill:#28bcd4; stroke:none;" d="M114 186C116.89 187.213 119.874 186.998 123 187C116.752 189.016 108.519 192.065 102 192L101 194L101 193C97.6658 193.556 95.9764 195.724 93 197C92.6253 197.161 92.6228 194.886 92 198C90.9774 196.466 91.1954 196.598 90 196L89 198C87.9774 196.466 88.1954 196.598 87 196C85.1428 198.786 82.4086 197.629 82 201C80.6611 198.934 80.3652 198.475 78 198C79.0043 199.607 79.1965 200.035 79 202C76.9943 200.844 77.1967 200.371 76 202L75 200C73.3932 201.004 72.9649 201.196 71 201L71 204L69 203L69 205C68.0143 203.522 68 203.797 68 202C66.9846 203.139 66.6914 203.612 66 205C64.312 204.311 63.9315 204.324 63 203L61 206C59.1219 205.374 58.3678 206.758 58 204C57.3153 205.248 57.2512 205.548 57 207C55.5215 206.014 55.7968 206 54 206L55 208L52 206L52 208L51 206C49.2189 207.232 48.0596 208.142 47 210C46.0144 208.522 46 208.797 46 207C45.221 208.769 45.0876 210.036 45 212L44 208C42.4966 209.663 41.8014 210.896 41 213C39.9774 211.466 40.1954 211.598 39 211L38 213L33 210L30 212C29.5069 214.638 27.7936 215.162 26 217C24.4833 216.043 23.6615 215.613 22 215C24.5565 219.911 27.7567 222.356 33 224C36.6213 220.171 40.2708 219.96 45 222C45.5424 219.83 45.8396 220.098 44 219C47.8566 217.566 51.7044 217.859 55.5756 216.772C61.5768 215.085 66.5186 211.559 73 212C77.4629 208.153 84.494 210.101 88 205C90.6222 205.133 91.4458 205.1 93 203C98.3856 203.606 103.714 203.191 109 202C108.35 200.7 108.853 201 107 201C119.292 196.389 132.881 193.244 146 193C143.668 192.015 141.543 192.019 139 192C142.115 190.855 144.692 190.761 148 191C148.864 188.741 148.61 188.308 151 188C146.758 185.459 141.808 186 137 186L114 186z"/>
<path style="fill:#30b0cc; stroke:none;" d="M200 196C198.483 195.043 197.662 194.613 196 194L195 199C193.287 197.353 192.306 197.369 192 195C191.315 196.248 191.251 196.548 191 198C190.014 196.521 190 196.797 190 195C189.315 196.248 189.251 196.548 189 198C187.521 197.014 187.797 197 186 197C185.014 198.479 185 198.203 185 200C184.014 198.522 184 198.797 184 197C180.929 198.073 179.6 198.793 179 202C177.365 201.455 177.545 201.635 177 200C176.315 201.248 176.251 201.548 176 203C174.341 200.926 174.567 200.163 174 203L171 202C168.82 205.633 165.868 204 163 204L162 206L162 204C160.885 205.115 160.238 206.881 158 208L157 207L157 209C155.977 207.466 156.195 207.598 155 207L150 211C148.703 209.08 148.209 208.684 146 208C146.65 209.3 146.147 209 148 209C145.525 209.862 143.614 210.168 141 210L142 212C140.365 211.455 140.545 211.635 140 210C138.257 211.628 137.617 212.697 137 215C136.014 213.522 136 213.797 136 212C135.315 213.248 135.251 213.548 135 215C132.126 212.605 133.213 212.787 131 215L131 213C130.317 214.506 130.174 215.315 130 217C129.014 215.522 129 215.797 129 214C126.983 215.474 126.254 217.661 124 216L123 219L118 218L116 224C113.958 222.274 112.266 220.117 110 222C108.814 220.964 108.396 220.661 107 220L108 222C106.365 221.455 106.545 221.635 106 220L104 223L103 221C102.315 222.248 102.251 222.548 102 224C101.014 222.522 101 222.797 101 221C100.317 222.506 100.174 223.315 100 225L98 222C97.1509 224.221 97.0365 224.686 95 226C95.2183 224.314 95.2239 223.684 95 222L93 225L92 222C90.3006 223.275 87.4588 224.292 91 225C89.5215 225.986 89.7968 226 88 226C92.2151 227.769 97.4645 227 102 227C112.862 227 127.337 229.828 136 222L137 224L139 224C139 221.233 141.545 221.822 144 220.833C149.772 218.509 155.933 218.184 162 216.667C164.798 215.967 169.505 214.728 169 212C176.228 212.822 181.39 208.348 189 210C189 206.618 195.645 210.12 192 206C196.372 205.599 198.932 205.076 201 201C204.34 202.789 208.362 202.468 212 204C213.277 202.085 213.277 202.915 212 201C216.581 200.018 215 193.884 215 190C209.837 190.156 203.821 192.484 200 196z"/>
<path style="fill:#4091b8; stroke:none;" d="M438 194C438.661 195.396 438.964 195.814 440 197C436.299 197.307 433.327 197.205 430 199L429 196C427.984 197.139 427.691 197.612 427 199C425.814 197.814 425.472 197.416 425 196C423.269 197.006 421.947 197.546 420 198C421.506 198.683 422.315 198.826 424 199C419.654 201.173 418.612 199.388 416 202L416 200C415.315 201.248 415.251 201.548 415 203C414.014 201.522 414 201.797 414 200L410 200C407.693 202.939 405.815 204.428 402 204C403.777 210.216 407.215 215.801 409 222C411.297 221.326 411.774 221.035 413 219L414 221C414.685 219.752 414.749 219.452 415 218C417.139 220.674 416.266 219.641 419 218C417.723 219.915 417.723 219.085 419 221C420.564 219.279 420.716 217.401 423 219L424 213L425 217C426.939 216.108 427.519 215.598 429 214L430 218C430.779 216.231 430.912 214.964 431 213L434 217L435 212L439 214L439 210C439.857 211.707 439.982 212.109 440 214C441.618 212.686 441.693 212.123 442 210C444.343 211.504 446.217 211.784 449 212C446.846 205.676 444.477 196.833 438 194z"/>
<path style="fill:#36a2c4; stroke:none;" d="M285 199C276.709 197.754 269.33 203.24 261 202C261 207.711 247.157 207.44 243.167 210C241.326 211.181 240.755 214.157 239.833 216C237.34 220.987 234.148 226.545 233 232L237 232C238.277 230.085 238.277 230.915 237 229C242.322 229.998 247.297 230.316 250 225L252 228L255 227C254.402 225.805 254.534 226.023 253 225C255.776 224.727 258.329 224.134 261 225C265.627 221.529 273.012 221.17 278 218C281.652 220.011 283.521 217.253 285.24 213.981C288.105 208.531 290.634 202.682 293 197C290.071 197.299 286.746 196.502 285 199z"/>
<path style="fill:#30acca; stroke:none;" d="M201 201C198.411 204.252 195.98 205.067 192 206C192.598 207.195 192.466 206.977 194 208C191.657 208.188 189.396 207.672 189 210C181.341 207.731 176.417 211.876 169 212C169 214.475 166.481 214.566 164.167 215.667C158.007 218.595 151.128 217.277 145 220C142.323 221.19 138.484 221.215 139 224C137.365 223.455 137.545 223.635 137 222L129 226C134.782 228.792 144.572 227.015 151 227C154.242 226.992 157.549 227.588 158 224C161.036 223.268 163.889 222.294 167 222C168.491 219.912 169.677 220.499 170 223C170.685 221.752 170.749 221.452 171 220C174.606 220.151 177.38 218.055 181 218L180 216L183 218C183.726 215.821 183.439 216.22 185 217C185.986 215.522 186 215.797 186 214L188 218C189.819 216.636 189.031 216.508 191 217L190 213L194 216C197.025 214.334 200.012 212.842 202 210C203.479 210.986 203.203 211 205 211C206.277 209.085 206.277 209.915 205 208L209 210C209.986 208.522 210 208.797 210 207L215 208C215 204.637 215.716 201.796 212 201L212 204C208.331 201.393 204.19 203.392 201 201z"/>
<path style="fill:#34a8c8; stroke:none;" d="M210 207L209 210L205 208L205 211L202 210L195 216C193.232 214.651 192.018 213.878 190 213L191 217C189.266 217.032 189.493 217.001 188 218L187 214C186.539 214.346 185.051 216.737 184 217C183.394 217.151 183.628 214.859 183 218C181.814 216.964 181.396 216.661 180 216L181 218C177.258 217.465 171.884 219.024 171 223C170.014 221.521 170 221.797 170 220C167.33 220.534 167.557 219.215 167 222C163.651 221.725 161.161 222.869 158 224L158 227C176.722 227 211.151 233.682 215 208L210 207z"/>
<path style="fill:#4588b2; stroke:none;" d="M439 210L439 214C437.483 213.043 436.662 212.613 435 212L434 217L432 213C431.221 214.769 431.088 216.036 431 218L429 214L425 217L425 213C423.937 214.969 423.468 216.798 423 219C421.977 217.466 422.195 217.598 421 217L419 221L419 218C416.214 218.557 416.691 220.765 416 218C415.315 219.248 415.251 219.548 415 221C413.977 219.466 414.195 219.598 413 219C411.897 220.457 411.457 220.897 410 222L416 238C417.65 236.762 417.333 235.334 418 238C418.685 236.752 418.749 236.452 419 235C420.931 236.645 422.064 235.645 424 237L426 232L427 236C428.89 233.711 430.613 231.775 433 230L434 233C435.255 231.25 435.614 230.143 436 228C436.986 229.478 437 229.203 437 231C437.685 229.752 437.749 229.452 438 228C438.986 229.479 439 229.203 439 231C439.685 229.752 439.749 229.452 440 228L444 230L444 226C444.986 227.479 445 227.203 445 229C445.685 227.752 445.749 227.452 446 226L447 230C447.685 228.752 447.749 228.452 448 227C449.688 227.689 450.069 227.676 451 229L455 228C454.528 223.386 452.736 216.906 449.352 213.517C447.532 211.694 444.874 211.587 443 210L440 214C440.036 211.921 440.056 211.724 439 210z"/>
<path style="fill:#3c98bd; stroke:none;" d="M277 218C272.388 220.472 264.525 221.229 261 225C259.977 223.466 260.195 223.598 259 223C257.021 223.962 255.14 224.472 253 225C253.65 226.3 253.147 226 255 226L252 228L251 225C246.534 228.819 242.761 229.61 237 229L237 232C231.718 231.476 230.751 235.792 228.745 240C224.983 247.891 221.162 255.849 218 264C221.151 263.943 223.932 264.344 227 265C228.886 262.765 230.431 261.381 233 260C233 261.797 233.014 261.521 234 263C237.014 261.241 239.683 259.606 242 257C246.256 258.513 248.79 256.993 252 254C255.163 256.878 259.273 254.851 260 251L268 252C272.367 241.355 279.98 230.331 282 219C280.052 218.952 278.824 218.696 277 218z"/>
<path style="fill:#4884b0; stroke:none;" d="M444 226C443.782 227.686 443.776 228.316 444 230C441.54 228.639 440.611 227.931 440 231C439.014 229.522 439 229.797 439 228C438.315 229.248 438.251 229.548 438 231C437.014 229.522 437 229.797 437 228C435.938 229.693 435.48 231.04 435 233L433 230C429.988 231.505 428.925 232.76 428 236L427 232C425.497 233.663 424.801 234.896 424 237C422.977 235.466 423.196 235.598 422 235L421 237L420 235C419.315 236.248 419.251 236.548 419 238L418 236C414.975 244.743 426.262 254.324 434 255.671C451.648 258.744 460.133 241.708 456 227L451 229C449.643 226.488 448.395 227.524 448 230L447 226C446.315 227.248 446.251 227.548 446 229L444 226z"/>
<path style="fill:#30acca; stroke:none;" d="M27 274L31 273C29.7516 272.315 29.4517 272.251 28 272C31.4737 270.66 34.3288 270.577 38 271C38 268.649 38.6524 269.065 41 269C39.7516 268.315 39.4516 268.251 38 268C42.6596 266.819 48.1477 266.588 53 266C51.7516 265.315 51.4516 265.251 50 265C55.7446 262.819 61.1523 264.906 67 264C63.215 254.909 58.4074 242.529 49 238.05C36.4412 232.071 21.0926 241.098 20.213 255C19.7845 261.772 23.7124 268.367 27 274z"/>
<path style="fill:#418eb8; stroke:none;" d="M260 251C259.013 254.621 255.168 256.44 252 254C249.057 256.03 246.563 258.147 243 257C239.847 258.836 236.86 260.735 234 263L233 260C229.941 261.086 228.625 262.192 227 265C224.486 264.153 221.772 263.208 219.199 264.484C216.321 265.911 215.358 269.281 214.139 272C211.809 277.198 208.319 281.435 211 287C212.457 285.897 212.897 285.457 214 284L216 286L234 281C232.521 281.986 232.797 282 231 282C232.377 282.911 233.44 283.404 235 284C234.6 285.201 236.568 278.909 235 281C235.753 279.996 238.893 280.779 235 280L240 278C241.959 279.993 243.498 279.023 246 278C245.402 276.805 245.534 277.023 244 276L251 274C251.424 276.42 254.602 275.668 257 276C260.342 267.854 265.688 259.756 267 251L260 251z"/>
<path style="fill:#38a0c2; stroke:none;" d="M50 264C51.2483 264.685 51.5485 264.749 53 265C47.8389 266.839 43.4226 267.093 38 267C39.2483 267.685 39.5485 267.749 41 268C38.8532 269.004 37.9727 268.898 38 271C34.4628 270.279 31.5499 270.374 28 271C29.2483 271.685 29.5485 271.749 31 272L27 274C30.0738 281.133 34.0805 288.285 38 295L40 294L40 296L42 296L42 294C45.1975 295.066 44.7952 294.205 47 292L48 293C47.2321 291.686 47.3142 291.768 46 291C47.6839 290.776 48.3135 290.782 50 291C49.0143 292.479 49 292.203 49 294C51.8471 293.431 53.3969 295.016 54 292C55.4785 292.986 55.2032 293 57 293L57 288L58 292C60.0319 291.394 60.9148 291.489 63 292L64 288C65.6589 290.074 65.4327 290.837 66 288L68 291C69.1953 288.834 69.691 287.447 70 285L72 288C73.8192 286.636 73.031 286.508 75 287L75 283C76.2685 284.868 77.1124 285.795 79 287C77.3385 281.75 74.2421 276.917 71.7523 272C70.5016 269.53 69.3103 266.544 66.787 265.104C62.2829 262.534 54.8826 263.181 50 264z"/>
<path style="fill:#4884b0; stroke:none;" d="M271 297C274.467 295.097 276.884 293.93 278 290L280 294C281.67 292.106 282.949 289.922 285 292C285.779 290.231 285.912 288.964 286 287L287 291C287.685 289.752 287.749 289.452 288 288C289.595 288.61 290.674 289.005 292 290L293 286C294.023 287.534 293.805 287.402 295 288C295.957 286.483 296.387 285.661 297 284L298 288C298.683 286.494 298.826 285.685 299 284C300.896 286.37 300.104 286.37 302 284L303 288C304.416 285.958 304.745 284.489 305 282C305.986 283.479 306 283.203 306 285L308 282L309 286C309.911 284.623 310.404 283.56 311 282L313 286C314.707 283.465 314.852 281.03 315 278L317 284C318.081 282.542 318.436 281.752 319 280C320.023 281.534 319.805 281.402 321 282L322 278C323.186 279.036 323.604 279.339 325 280C325.986 278.521 326 278.797 326 277C326.562 278.801 326.824 280.122 327 282L330 277L331 280C332.819 278.636 332.031 278.508 334 279C334.986 277.521 335 277.797 335 276L338 277L339 274C340.023 275.534 339.805 275.402 341 276C341.986 274.521 342 274.797 342 273C342.986 274.479 343 274.203 343 276C343.779 274.231 343.912 272.964 344 271L346 275C348.214 273.616 349.593 272.849 350 276C351.062 274.307 351.52 272.96 352 271C354.1 271.885 354.74 272.035 357 272C356.35 270.7 356.853 271 355 271L362 270C354.361 266.794 342.271 269 334 269C318.667 269 300.989 266.589 286 270.019C277.744 271.907 271.216 278.426 270.186 287C269.779 290.389 270.384 293.682 271 297z"/>
<path style="fill:#4c7cac; stroke:none;" d="M355 270C355.598 271.195 355.466 270.977 357 272C355.052 271.952 353.824 271.696 352 271L351 276C350.014 274.521 350 274.797 350 273C347.086 273.583 348.07 272.412 346 275L345 271C344.221 272.769 344.088 274.036 344 276C343.014 274.522 343 274.797 343 273C341.984 274.139 341.691 274.611 341 276C339.977 274.466 340.195 274.598 339 274C338.014 275.479 338 275.203 338 277C336.521 276.014 336.797 276 335 276C333.128 279.745 333.303 277.121 331 280C331 278.203 330.986 278.479 330 277C328.745 278.751 328.386 279.857 328 282C327.438 280.199 327.176 278.878 327 277C325.985 278.139 325.691 278.612 325 280L322 278L321 282C319.977 280.466 320.195 280.598 319 280L317 284L316 278C314.671 280.554 314.36 283.15 314 286L311 282L309 286L308 282C307.315 283.248 307.251 283.548 307 285C306.014 283.521 306 283.797 306 282C304.937 283.969 304.468 285.798 304 288L302 284C300.35 285.238 300.667 286.667 300 284C299.317 285.506 299.174 286.315 299 288L298 284C296.062 285.579 295.333 287.633 293 286L292 290C289.778 288.109 288.502 287.855 288 291L287 287C286.221 288.769 286.088 290.036 286 292C285.014 290.522 285 290.797 285 289C282.453 290.373 281.812 291.218 281 294L279 290C277.588 291.553 271.653 298.896 271 294C269.018 298.724 270 304.91 270 310C270.685 308.752 270.749 308.452 271 307C272.672 307.338 272.31 307.537 273 306C274.186 307.036 274.604 307.339 276 308L275 306C278.926 306.775 284.102 305.21 285 301C285.788 302.699 285.981 303.183 286 305C287.618 303.686 287.693 303.123 288 301L290 304C290.479 302.503 290.4 302.65 290 301C291.267 302.543 291.489 303.048 292 305C293.535 302.114 293.858 299.252 294 296C294.562 297.801 294.824 299.122 295 301C296.3 300.35 296 300.853 296 299C296.986 300.479 297 300.203 297 302C297.685 300.752 297.749 300.452 298 299C298.986 300.479 299 300.203 299 302C299.779 300.231 299.912 298.964 300 297L301 301C301.874 298.948 301.953 297.253 302 295C302.562 296.801 302.824 298.122 303 300C304.667 298.427 305.402 297.213 306 295C306.562 296.801 306.824 298.122 307 300L309 296L310 297C310 295.203 309.986 295.478 309 294C310.513 295.653 311.181 296.894 312 299C313.503 297.337 314.199 296.104 315 294L319 296L319 292L320 296C320.683 294.494 320.826 293.685 321 292C321.913 293.846 322.401 294.795 324 296C323.352 293.291 323.058 290.784 323 288C323.803 290.4 324.093 292.372 326 294L325 291C327.138 291.028 326.841 290.316 327 288L328 292L331 290L332 293C334.472 290.799 337.159 288.73 339 286L341 289L343 287L344 289C345.079 287.559 344.969 287.832 345 286C346.724 285.614 347.539 285.25 349 286C349.685 284.752 349.749 284.452 350 283C350.986 284.479 351 284.203 351 286C351.685 284.752 351.749 284.452 352 283C355.057 285.104 357.8 285.198 360 282L362 283C362.986 281.522 363 281.797 363 280C364.413 281.065 365.3 281.542 367 282C367.986 280.521 368 280.797 368 279C369.186 280.186 369.584 280.528 371 281L372 277C372.986 278.479 373 278.203 373 280C373.683 278.494 373.826 277.685 374 276L375 280C375.685 278.752 375.749 278.452 376 277C376.986 278.478 377 278.203 377 280C378.351 278.514 380.442 273.814 381 278C381.685 276.752 381.749 276.452 382 275C382.986 276.479 383 276.203 383 278C383.685 276.752 383.749 276.452 384 275C387.137 275.494 388 275.036 389 272C392.448 274.421 396.21 275.395 396 270L400 270C398.964 271.186 398.661 271.604 398 273C399.92 271.703 400.316 271.209 401 269L367 269.015L355 270z"/>
<path style="fill:#5078a8; stroke:none;" d="M401 269C400.108 270.939 399.598 271.519 398 273C398.545 271.365 398.365 271.545 400 271C398.494 270.317 397.685 270.174 396 270C395.029 274.716 392.627 274.042 389 272C387.83 275.936 384.442 274.352 384 278C383.014 276.521 383 276.797 383 275C382.315 276.248 382.251 276.548 382 278C381.014 276.521 381 276.797 381 275C379.16 276.717 378.651 277.566 378 280C377.014 278.522 377 278.797 377 277C376.315 278.248 376.251 278.548 376 280L375 276C374.317 277.506 374.174 278.315 374 280C373.014 278.521 373 278.797 373 277C372.089 278.377 371.596 279.44 371 281C369.814 279.814 369.416 279.472 368 279L367 282C365.405 281.39 364.326 280.995 363 280L362 283L360 282C357.562 284.055 355.859 284.521 353 283C352.315 284.248 352.251 284.548 352 286C351.014 284.521 351 284.797 351 283C350.315 284.248 350.251 284.548 350 286C348.977 284.466 349.195 284.598 348 284C346.814 285.186 346.416 285.528 345 286L345 289L343 287C340.712 287.942 340.342 288.563 340 286C336.928 288.021 334.647 289.674 333 293L331 290C329.686 290.768 329.768 290.686 329 292L328 288L326 292L325 291C325 292.797 325.014 292.521 326 294C324.418 291.943 324.174 290.612 324 288C322.812 290.852 323.136 293.06 324 296C322.733 294.457 322.511 293.952 322 292C321.317 293.506 321.174 294.315 321 296L320 292C319.317 293.506 319.174 294.315 319 296L315 294L313 299C311.774 296.923 310.929 295.389 309 294L310 297C307.862 296.972 308.159 297.684 308 300C307.438 298.199 307.176 296.878 307 295C305.921 296.441 306.031 296.168 306 298C304.686 298.768 304.768 298.686 304 300C303.438 298.199 303.176 296.878 303 295C302.126 297.052 302.047 298.747 302 301L301 297C300.221 298.769 300.088 300.036 300 302C299.014 300.521 299 300.797 299 299C298.315 300.248 298.251 300.548 298 302C297.014 300.521 297 300.797 297 299C295.7 299.65 296 299.147 296 301C295.438 299.199 295.176 297.878 295 296C293.624 298.862 293.251 301.838 293 305C292.087 303.154 291.599 302.205 290 301L291 304C289.814 302.814 289.472 302.416 289 301L286 305C286.224 303.316 286.218 302.687 286 301C285.315 302.248 285.251 302.548 285 304L275 306L276 308L273 306C272.274 308.179 272.56 307.78 271 307C270.499 309.686 270.117 312.27 270 315L275 316L275 313C276.023 314.534 275.805 314.402 277 315C278.703 314.302 279.191 314.166 281 314L281 312C286.149 312.999 298.481 310.135 302 306C306.11 306.653 309.86 305.093 314 305C314 302.225 323.018 301.753 326 300.5C335.535 296.492 346.356 294.247 356.333 291.667C361.67 290.286 365.202 287.252 371 288C372.13 286.6 373.218 285.584 374 284L384 283C388.289 279.239 394.624 280.948 398 276C399.594 277.297 400.018 277.535 402 278C401.35 276.7 401.853 277 400 277C403.936 275.776 407.981 275.84 412 275C411.35 273.7 411.853 274 410 274C415.726 273.121 422.206 271.09 427.995 271.403C433.296 271.69 435.048 275.43 433 280L436 281L437 280L436 276L437 278C437.683 276.494 437.826 275.685 438 274C439.659 276.074 439.433 276.837 440 274C440.986 275.479 441 275.203 441 277C441.685 275.752 441.749 275.452 442 274C443.023 275.534 442.805 275.402 444 276C446.455 273.769 449.926 273.183 453 272C447.881 268.443 440.999 269 435 269L401 269z"/>
<path style="fill:#5076a8; stroke:none;" d="M410 273C410.598 274.195 410.466 273.977 412 275L400 276C400.65 277.3 400.147 277 402 277C400.065 277.025 399.744 276.909 398 276C393.954 279.943 387.298 278.538 384 283L374 284C372.87 285.4 371.782 286.416 371 288C365.172 287.225 361.02 289.773 355.588 291.273C345.967 293.93 336.297 296.53 326.866 299.838C323.682 300.955 314.491 301.91 314 305C309.878 304.523 306.146 306.098 302 306C297.191 309.763 287.042 312.369 281 312L281 314C278.715 313.278 276.961 314.373 275 313C273.723 314.915 273.723 314.085 275 316L270 315L270 326C271.396 325.339 271.814 325.036 273 324C274.703 325.309 275.866 325.658 278 326L279 325L278 323C280.031 323.153 280.591 323.326 282 322L283 324L291 317C292.015 319.334 292.421 317.91 293 316C293.986 317.479 294 317.203 294 319C294.685 317.752 294.749 317.452 295 316C298.039 317.66 300.564 318.621 304 319L305 318L304 316C308.412 316.169 309.522 314.188 310 310C318.521 310 327.673 310.982 336 309C335.402 307.805 335.534 308.023 334 307C338.06 306.452 341.111 306.026 344 303L349 306L350 305L349 302C353.654 305.281 355.605 303.983 360 301C359.402 299.805 359.534 300.023 358 299L370 298C369.402 296.805 369.534 297.023 368 296L378 297C377.402 295.805 377.534 296.023 376 295C377.797 295 377.521 294.986 379 294C380.746 297.189 383.05 294.729 383 292C385.126 292.231 386.879 292.246 389 292L387 289C389.288 289.352 389.084 289.366 391 288C392.089 289.575 393.256 290.089 395 291C395.957 289.483 396.387 288.661 397 287C398.734 286.968 398.507 286.999 400 286C400 287.797 400.014 287.521 401 289C404.074 288.36 406.856 287.878 410 288C410.986 286.521 411 286.797 411 285C413.715 285.305 416.272 285.159 419 285C417.231 284.221 415.964 284.088 414 284C416.99 282.67 418.898 283.027 422 284C422.689 282.312 422.676 281.931 424 281C423.35 279.7 423.853 280 422 280C424.183 279.323 424.859 279.246 427 280L427 278L428 280C431.568 277.482 432.758 275.376 433 271C425.324 271.396 417.649 273.342 410 273z"/>
<path style="fill:#5470a4; stroke:none;" d="M453 271C449.271 273.983 446.248 272.752 443 276L443 274C442.315 275.248 442.251 275.548 442 277C441.014 275.521 441 275.797 441 274C439.35 275.238 439.667 276.667 439 274C438.317 275.506 438.174 276.315 438 278L437 276C436.426 277.809 436.535 278.069 437 280L436 281C434.521 280.014 434.797 280 433 280C434.781 277.238 434.375 275.221 434 272C432.201 275.07 430.578 277.493 428 280L428 278C426.7 278.65 427 278.147 427 280C424.983 278.747 424.377 278.689 422 279C422.598 280.195 422.466 279.977 424 281C422.428 281.831 422.396 282.173 422 284C419.016 282.531 417.258 282.319 414 283C415.769 283.779 417.036 283.912 419 284C416.229 284.9 413.906 285.203 411 285L410 288C406.663 287.496 404.211 288.008 401 289L400 286C398.181 287.364 398.969 287.492 397 287L395 291L391 288C389.433 288.698 388.714 288.874 387 289C387.661 290.396 387.964 290.814 389 292L383 292C382.751 294.413 380.708 296.573 379 294L376 295C376.598 296.195 376.466 295.977 378 297C374.539 296.892 371.5 295.698 368 296C368.598 297.195 368.466 296.977 370 298C365.94 298.338 361.989 298.083 358 299C358.598 300.195 358.466 299.977 360 301C355.304 303.192 353.856 304.749 349 302C349 303.797 349.014 303.521 350 305L349 306L345 303C342.428 304.286 339.907 306.585 337 307C337.654 306.907 336.067 305.391 335 306C330.93 308.326 338.826 307.793 334 309C338.469 310.875 344.191 310 349 310C358.194 310 367.857 310.855 377 309.892C382.899 309.271 386.006 305.454 392 308L391 304C393.123 303.693 393.686 303.618 395 302L400 305C402.461 303.695 404.201 302.756 407 303C409.525 300.237 411.221 298.995 415 299C416.481 297.402 417.061 296.892 419 296C417.466 297.023 417.598 296.805 417 298L420 299C421.277 297.085 421.277 297.915 420 296C423.333 295.809 425.873 295.798 429 297C432.551 294.756 435.972 292.695 440 291.387C443.642 290.205 446.752 290.352 449 287L454 290C455.277 288.085 455.277 288.915 454 287L457 289C458.344 287.646 459.432 286.836 461 288L465 286C462.683 279.209 459.268 274.625 453 271z"/>
<path style="fill:#4884b0; stroke:none;" d="M244 276C244.598 277.195 244.466 276.977 246 278C243.522 278.633 242.259 279.069 240 278L235 279C235.598 280.195 235.466 279.977 237 281C235.428 281.831 235.396 282.173 235 284L231 283C232.478 282.014 232.203 282 234 282C230.346 280.826 220.238 283.866 217 286L215 284C213.543 285.103 213.103 285.543 212 287C210.483 286.043 209.661 285.613 208 285C203.576 295.641 197.192 305.917 194 317L198 319C198.726 316.821 198.439 317.22 200 318C200.724 316.207 201.412 314.276 203 316C204.402 314.059 205.221 312.27 206 310C206.562 311.801 206.824 313.122 207 315C208.314 313.388 209.187 311.915 210 310C210.562 311.801 210.824 313.122 211 315C211.779 313.231 211.912 311.964 212 310L214 314C215.081 312.542 215.436 311.752 216 310C216.986 311.479 217 311.203 217 313C217.685 311.752 217.749 311.452 218 310C219.023 311.534 218.805 311.402 220 312C220.895 309.958 221.536 308.172 222 306C224.584 306.629 225.652 306.307 226 309C226.685 307.752 226.749 307.452 227 306C229.421 305.758 230.808 305.151 233 304L233 308C233.683 306.494 233.826 305.685 234 304C235.659 306.074 235.433 306.837 236 304C236.986 305.479 237 305.203 237 307C237.685 305.752 237.749 305.452 238 304C239.023 305.534 238.805 305.402 240 306L241 302C242.023 303.534 241.805 303.402 243 304C248.374 295.682 254.52 284.871 256 275C253.095 275 252.355 275.942 250 275L251 274L244 276z"/>
<path style="fill:#4094ba; stroke:none;" d="M75 283L75 287C73.2664 287.032 73.4934 287.001 72 288L71 285C70.0139 286.276 67.6337 292.752 67 288C65.3875 288.982 65.5069 289.11 64 288L63 292C60.9471 291 60.586 290.494 59 292L58 288C56.8556 289.918 56.8258 290.732 57 293L54 292C52.5522 293.368 50.936 293.403 49 294L50 291L46 290L48 293C45.1483 291.859 46.0153 293.492 43 295L42 294L42 296L40 296L40 294C38.3353 300.071 45.2149 308.707 48 314C49.7387 313.938 50.375 314.478 52 315L51 313C56.1154 313.753 62.3344 312.757 65 308L67 310C70.7374 308.274 74.194 308.425 78 307.286C81.2876 306.303 83.5027 304.344 87 304L88 303C84.5096 295.524 80.6256 288.998 75 283z"/>
<path style="fill:#58689e; stroke:none;" d="M460 286C457.285 288.172 457.606 285.97 457 289C455.814 287.964 455.396 287.661 454 287L454 290C452.232 288.652 451.017 287.878 449 287C443.713 292.277 435.115 290.795 430 297C426.444 295.161 423.89 295.339 420 296L420 299C418.521 298.014 418.797 298 417 298L419 297C416.737 296.177 416.247 296.997 415 299C411.016 298.348 409.098 299.599 407 303C404.048 302.434 403.031 302.79 401 305C398.949 303.602 397.354 302.749 395 302C393.457 303.267 392.952 303.489 391 304L392 308C387.391 304.981 384.639 306.743 380 309C387.159 312.004 398.256 310 406 310L419 310C433.906 310 457.641 313.97 463.891 296C465.023 292.745 464.991 289.398 465 286C462.33 286.534 462.557 285.215 462 288C460.977 286.466 461.195 286.598 460 286z"/>
<path style="fill:#4c7cac; stroke:none;" d="M241 302L240 306L239 304C238.315 305.248 238.251 305.548 238 307C237.014 305.521 237 305.797 237 304C235.35 305.238 235.667 306.666 235 304C234.317 305.506 234.174 306.315 234 308L233 304C230.013 304.996 227.517 305.741 227 309C226.014 307.521 226 307.797 226 306L222 306L220 312L219 310C218.315 311.248 218.251 311.549 218 313C217.014 311.522 217 311.797 217 310C215.919 311.458 215.564 312.248 215 314L213 310C212.221 311.769 212.088 313.036 212 315C211.438 313.199 211.176 311.878 211 310C209.257 311.628 208.617 312.697 208 315C207.438 313.199 207.176 311.878 207 310C205.268 311.978 204.598 313.434 204 316C202.977 314.466 203.195 314.598 202 314C200.704 315.594 200.465 316.018 200 318C198.328 317.662 198.69 317.463 198 319C196.174 317.664 195.247 317.31 193 317C191.497 322.218 188.503 326.782 187 332C189.262 332.219 189.026 332.004 190 334C190.685 332.752 190.749 332.452 191 331C192.479 331.986 192.203 332 194 332C194.986 330.521 195 330.797 195 329C196.023 330.534 195.805 330.402 197 331C198.478 328.959 198.95 328.463 201 330L202 324C203.129 326.491 204.017 328.14 206 330L207 326C207.986 327.479 208 327.203 208 329C209.062 327.307 209.52 325.96 210 324C212.308 325.561 212.651 325.883 213 323C213.986 324.479 214 324.203 214 326C214.683 324.494 214.826 323.685 215 322L217 326C217.782 324.021 217.823 322.136 218 320L220 326C220.574 324.191 220.465 323.931 220 322C221.952 321.93 221.94 321.646 223 323C223.779 321.231 223.912 319.964 224 318C224.644 320.106 224.906 321.795 225 324C225.779 322.231 225.912 320.964 226 319C226.986 320.479 227 320.203 227 322C227.685 320.752 227.749 320.452 228 319L229 321C229.779 319.231 229.912 317.964 230 316C230.644 318.106 230.906 319.795 231 322C232.006 320.699 232.665 316.863 234 319C235.3 318.35 235 318.853 235 317C238.925 319.707 243.549 305.705 244 302C242.805 302.598 243.023 302.466 242 304C242 302.147 242.3 302.65 241 302z"/>
<path style="fill:#448cb5; stroke:none;" d="M68 310C66.8137 308.814 66.4162 308.472 65 308C61.6721 312.139 56.1553 313.11 51 313L52 315C50.3648 314.455 50.5451 314.635 50 313C48.2336 315.591 50.4643 318.262 51.8333 321C54.1636 325.661 56.5418 330.491 59.1667 335C60.6066 337.474 62.642 337.226 63 340C63.6848 338.752 63.7488 338.452 64 337C65.6721 337.338 65.3102 337.537 66 336L68 339L69 334L71 338C73.5866 336.707 74.9912 334.205 77 333L78 334L79 332L80 335C80.6848 333.752 80.7488 333.452 81 332L83 335L84 331L85 335C85.7789 333.231 85.9124 331.964 86 330L87 334C87.6848 332.752 87.7488 332.452 88 331C89.0226 332.534 88.8046 332.402 90 333C91.123 331.075 92.5311 328.483 93 332C93.9114 330.623 94.4038 329.56 95 328L98 330C99.0101 328.831 99.4841 328.685 101 328C97.4333 319.433 92.6759 311.011 88 303C84.1622 303.505 81.5723 305.444 78 306.643C74.1517 307.934 71.1693 307.086 68 310z"/>
<path style="fill:#5470a4; stroke:none;" d="M309 314C307.243 315.661 306.423 315.983 304 316L304 319C300.758 318.196 295.911 314.858 295 319C294.014 317.521 294 317.797 294 316C292.567 317.086 292.102 318.041 291 317C288.059 319.074 285.66 320.777 284 324C282.977 322.466 283.195 322.598 282 322C280.546 323.041 279.857 323.008 278 323L278 326L273 324C268.381 328.394 270.756 334.313 271 340C272.952 340.511 273.457 340.733 275 342C280.417 338.458 286.66 336.647 293 338L294 337L293 335C295.138 334.561 296.994 333.865 299 333L298 330C301.141 330.281 304.248 329.544 307 331L310 331C311.516 325.861 311.096 318.948 309 314z"/>
<path style="fill:#5076a8; stroke:none;" d="M230 316L230 321L229 319C228.315 320.248 228.251 320.549 228 322C227.014 320.521 227 320.797 227 319C226.221 320.769 226.088 322.036 226 324C225.356 321.894 225.094 320.205 225 318C224.221 319.769 224.088 321.036 224 323C222.183 321.843 222.165 321.855 220 322L221 326C219.957 323.905 219.397 322.301 219 320C217.746 322.162 217.775 323.483 218 326L216 322C215.317 323.506 215.174 324.315 215 326C214.014 324.521 214 324.797 214 323C213.315 324.248 213.251 324.548 213 326C211.814 324.814 211.416 324.472 210 324L209 329L207 326L206 330C204.427 327.885 203.648 326.53 203 324C201.937 325.969 201.468 327.798 201 330C199.977 328.466 200.195 328.598 199 328C197.166 329.529 196.881 330.386 195 329C193.373 330.961 191.57 331.433 191 334C190.014 332.522 190 332.797 190 331C184.754 333.726 177.806 345.358 181 351L179 351C179.65 352.3 179.147 352 181 352C179.964 353.186 179.661 353.604 179 355C180.924 353.999 181.098 353.922 182 352L184 353C185.223 351.805 185.42 351.684 187 351C185.752 350.315 185.452 350.251 184 350C186.957 349.355 189.965 349.026 193 349C194.474 346.543 196.11 345.266 199 347L198 348C201.079 346.63 202.7 346.052 206 347C207.277 345.085 207.277 345.915 206 344C209.193 343.181 211.713 342.544 215 343C215.986 341.521 216 341.797 216 340C220.069 340.521 223.929 339.281 228 339C230.848 332.158 236.453 324.575 236 317C234.805 317.598 235.023 317.466 234 319C232.512 315.577 232.044 320.321 232 322L230 316z"/>
<path style="fill:#4884b0; stroke:none;" d="M95 328L94 332C93.0143 330.521 93 330.797 93 329C91.3924 330.45 90.9357 331.051 90 333L89 331C88.3152 332.248 88.2512 332.548 88 334L87 330C86.2211 331.769 86.0876 333.036 86 335L85 331C83.8439 332.397 83.4483 333.232 83 335C82.0143 333.521 82 333.797 82 332C81.3152 333.248 81.2512 333.548 81 335L79 332C77.1809 333.364 77.969 333.492 76 333L71 338L70 334C68.8489 335.674 68.4149 337 68 339C67.0143 337.521 67 337.797 67 336C64.9511 337.281 64.232 337.448 64 340L62 337C61.1922 340.837 64.5415 346.768 67.3333 349.833C69.4156 352.12 71.5816 350.758 72 354C72.6848 352.752 72.7488 352.452 73 351C74.9646 351.372 76.2896 350.803 78 352C79.4183 349.501 80.8074 347.195 83 350C83.8742 347.948 83.9528 346.253 84 344C84.8102 346.729 84.9792 349.15 85 352C85.9845 349.668 85.9813 347.543 86 345L87 349C87.6831 347.494 87.8259 346.685 88 345C89.1863 346.186 89.5838 346.528 91 347L91 343L92 345C92.6848 343.752 92.7488 343.452 93 342C93.9857 343.479 94 343.203 94 345C94.6848 343.752 94.7488 343.452 95 342C95.9857 343.479 96 343.203 96 345C97.7811 343.768 98.9404 342.859 100 341C101.111 342.742 101.27 343.119 103 344L103 339C103.722 341.418 103.948 343.472 104 346C104.874 343.948 104.953 342.253 105 340C105.562 341.801 105.824 343.122 106 345C109.311 339.146 104.06 333 101 328C98.3297 328.534 98.557 327.215 98 330C96.8137 328.964 96.3964 328.661 95 328z"/>
<path style="fill:#58689e; stroke:none;" d="M298 330C298 331.797 298.014 331.521 299 333L296 333C294.777 334.195 294.58 334.316 293 335L293 338C287.95 336.153 278.97 336.824 276 342C274.174 340.664 273.247 340.31 271 340L271 358C272.783 357.02 272.594 357.092 273 355C273.986 356.479 274 356.203 274 358C275.255 356.25 275.614 355.143 276 353L278 357C280.927 355.737 282.543 354.868 284 352C285.023 353.534 284.805 353.402 286 354L287 349L290 355C291.255 353.25 291.614 352.143 292 350C294.288 350.352 294.084 350.366 296 349L297 352C298.528 350.526 298.84 350.082 299 348C301.116 348.281 300.938 348.6 302 347C302.986 348.479 303 348.203 303 350C304.819 348.636 304.031 348.508 306 349C306 347.203 305.986 347.478 305 346C313.189 346.315 311 335.757 311 330L307 331C304.761 328.657 301.139 330.097 298 330z"/>
<path style="fill:#5470a4; stroke:none;" d="M226 338C222.911 339.551 219.443 339.785 216 340L215 343C211.556 342.158 209.313 342.8 206 344L206 347C202.534 345.365 201.145 345.916 198 348C197.44 344.692 194.197 347.022 193 349L184 349C185.248 349.685 185.548 349.749 187 350C185.258 351.111 184.881 351.27 184 353L182 352L179 355L181 352L179 352L181 351C175.924 349.797 171.731 363.901 171 368C173.784 368.271 176.32 368.219 179 369C181.57 367.511 183.135 366.223 186 367C187.804 366.445 189.127 366.166 191 366C192.277 364.085 192.277 364.915 191 363C193.739 362.789 194.422 362.697 195 360C198.648 360.506 202.385 359.851 205.995 359.064C208.201 358.583 210.001 357.107 212 358C219.257 355.373 229.134 347.058 226 338z"/>
<path style="fill:#4c7cac; stroke:none;" d="M103 339C102.806 340.857 102.79 342.153 103 344C101.805 342.777 101.684 342.58 101 341C99.2188 342.232 98.0596 343.142 97 345C96.0143 343.521 96 343.797 96 342C95.3152 343.248 95.2512 343.548 95 345C94.0143 343.522 94 343.797 94 342C93.3152 343.248 93.2512 343.548 93 345L92 343C91.317 344.506 91.1741 345.315 91 347C89.8137 345.814 89.4162 345.472 88 345L88 349L87 345C86.0155 347.332 86.0187 349.457 86 352C85.1898 349.271 85.0208 346.85 85 344C84.1257 346.052 84.0472 347.747 84 350C83.0143 348.521 83 348.797 83 347C79.9497 347.948 79.0877 349.003 78 352C76.9774 350.466 77.1954 350.598 76 350C74.0222 351.382 73.378 351.618 73 354C72.0143 352.521 72 352.797 72 351L68 351C70.0123 355.833 72.5649 360.372 75 365C75.6848 363.752 75.7488 363.452 76 362C77.4785 362.986 77.2032 363 79 363C77.7233 364.915 77.7233 364.085 79 366C79.9845 363.668 79.9813 361.543 80 359L81 363C82.4215 361.211 82.6974 360.294 83 358C83.6438 360.106 83.9059 361.795 84 364C84.6848 362.752 84.7488 362.452 85 361C86.0226 362.534 85.8046 362.402 87 363L88 360C88.9857 361.479 89 361.203 89 363C90.6704 361.33 89.6968 360.424 92 361L92 355L94 361C95.1444 359.081 95.1742 358.268 95 356C96.1863 357.186 96.5279 357.584 97 359C99.9934 358.517 103.53 354.472 104 358C105.793 356.62 106.043 355.63 108 357C109.006 355.324 109.009 354.414 110 356C111.195 355.402 110.977 355.534 112 354C112.545 355.635 112.365 355.455 114 356C114.825 352.556 108.21 338.917 107 345C106.438 343.199 106.176 341.878 106 340C105.126 342.052 105.047 343.747 105 346L103 339z"/>
<path style="fill:#5c6099; stroke:none;" d="M310 344C308.243 345.661 307.423 345.983 305 346L306 349C304.328 348.662 304.69 348.463 304 350C303.014 348.521 303 348.797 303 347C301.393 348.004 300.965 348.197 299 348C299.075 350.102 298.454 350.371 297 352C297 350.203 296.986 350.478 296 349C294.433 349.698 293.714 349.874 292 350L291 355C289.739 352.99 288.81 351.222 288 349C286.938 350.693 286.48 352.04 286 354C284.977 352.466 285.195 352.598 284 352C282.245 354.246 280.391 355.454 278 357L277 353C275.938 354.693 275.48 356.04 275 358C274.014 356.521 274 356.797 274 355C269.392 360.754 270.735 369.184 272 376C272.683 374.494 272.826 373.685 273 372C273.986 373.479 274 373.203 274 375C274.685 373.752 274.749 373.452 275 372C275.986 373.479 276 373.203 276 375C276.685 373.752 276.749 373.452 277 372C278.186 373.036 278.604 373.339 280 374C280 371.636 280.719 371.76 283 371L282 373C283.783 372.02 283.594 372.092 284 370C284.986 371.479 285 371.203 285 373C285.683 371.494 285.826 370.685 286 369C286.986 370.479 287 370.203 287 372C287.685 370.752 287.749 370.452 288 369L290 372C292.061 370.012 292.579 368.843 293 366L295 369C295.986 367.521 296 367.797 296 366C296.986 367.479 297 367.203 297 369C297.683 367.494 297.826 366.685 298 365L300 368C302.679 366.759 305.054 366.179 308 366L308 364C309.478 364.986 309.203 365 311 365C311 358.564 312.5 349.959 310 344z"/>
<path style="fill:#5076a8; stroke:none;" d="M109 354C108.014 355.479 108 355.203 108 357C106.977 355.466 107.195 355.598 106 355C105.014 356.479 105 356.203 105 358C104.014 356.521 104 356.797 104 355L97 359C97 357.203 96.9857 357.479 96 356L94 361L93 355C92.1257 357.052 92.0472 358.747 92 361C89.9104 360.613 90.2889 360.616 90 363L88 360C87.0143 361.479 87 361.203 87 363L86 361C85.3152 362.248 85.2512 362.548 85 364C84.3562 361.894 84.0941 360.205 84 358C83.076 359.648 82.5506 361.175 82 363L81 359C80.0155 361.332 80.0187 363.457 80 366C78.6734 364.059 78.1003 363.045 76 362C76.3862 369.445 80.259 380.655 89 380C87.7516 379.315 87.4516 379.251 86 379C88.4529 378.861 88.6764 378.929 90 381C90.6848 379.752 90.7488 379.452 91 378C93.5794 377.441 93.9724 376.466 95 374C96.7395 375.228 97.9006 375.652 100 376L101 375L100 373L103 375L105 373C106.103 374.457 106.543 374.897 108 376L109 375L107 371C109.232 371.791 110.646 372.077 113 372C112.35 370.7 112.853 371 111 371C112.742 369.889 113.119 369.73 114 368C116.191 369.796 117.171 370.14 120 370C119.35 368.7 119.853 369 118 369C123.331 365.473 117.811 359.634 116 355C113.806 355.093 112.114 354.247 111 356C109.977 354.466 110.195 354.598 109 354z"/>
<path style="fill:#58689e; stroke:none;" d="M212 358C210.004 356.544 208.728 357.976 206.42 358.665C202.9 359.716 198.647 360.06 195 360C193.774 362.035 193.297 362.326 191 363L191 366C188.777 365.816 188.81 365.76 187 367C183.607 365.845 182.41 366.349 180 369C176.576 367.473 173.68 368.116 170 368C166.741 375.839 158.752 386.431 160 395C162.179 393.461 162.573 392.645 163 390C163.986 391.479 164 391.203 164 393C166.126 392.769 167.879 392.754 170 393C170.315 391.288 171.325 384.32 173 387C174.819 385.636 174.031 385.508 176 386L178 380L180 383C181.314 382.232 181.232 382.314 182 381C183.985 382.277 184.85 382.981 186 385C187.819 383.636 187.031 383.508 189 384L192 378C193.186 379.036 193.604 379.339 195 380L195 377C195.788 378.699 195.981 379.183 196 381C198.122 379.535 198.474 378.543 199 376C199.986 377.479 200 377.203 200 379C200.685 377.752 200.749 377.452 201 376C203.54 376.523 203.685 376.595 204 374C204.913 375.846 205.401 376.795 207 378C206.946 376.444 207.023 374.938 208 377C209.062 375.307 209.52 373.96 210 372C211.023 373.534 210.805 373.402 212 374C214.627 367.683 218.104 361.584 220 355C217.124 355.763 214.593 356.54 212 358z"/>
<path style="fill:#615893; stroke:none;" d="M308 364L308 366C304.743 365.557 302.63 366.006 300 368L299 365C298.317 366.506 298.174 367.315 298 369C297.014 367.521 297 367.797 297 366C295.985 367.139 295.691 367.612 295 369C294.014 367.521 294 367.797 294 366L290 372L289 369C288.315 370.248 288.251 370.548 288 372C287.014 370.522 287 370.797 287 369C286.317 370.506 286.174 371.315 286 373C285.014 371.522 285 371.797 285 370L282 373L283 371C280.58 371.666 279.973 371.643 280 374C278.365 373.455 278.545 373.635 278 372C277.315 373.248 277.251 373.548 277 375C276.014 373.521 276 373.797 276 372C275.315 373.248 275.251 373.548 275 375C274.014 373.521 274 373.797 274 372C273.317 373.506 273.174 374.315 273 376C272.014 374.521 272 374.797 272 373C270.448 376.699 271 381.017 271 385L271 407C279.858 401.226 291.181 402.544 300 396C300 397.797 300.014 397.521 301 399L308 397C307.402 395.805 307.534 396.023 306 395L311 394L311 374C310.998 369.92 311.51 366.531 308 364z"/>
<path style="fill:#5470a4; stroke:none;" d="M118 368C118.598 369.195 118.466 368.977 120 370C117.52 369.984 116.725 369.767 115 368L111 370C111.598 371.195 111.466 370.977 113 372C110.85 371.951 109.081 371.562 107 371C107.613 372.661 108.043 373.483 109 375L108 376L105 373C103.365 373.545 103.545 373.365 103 375C101.814 373.964 101.396 373.661 100 373L100 376L95 374C93.6487 376.536 91.4279 378.211 91 381C90.0143 379.521 90 379.797 90 378L86 378C87.2484 378.685 87.5484 378.749 89 379C87.1336 379.717 85.9787 380.03 84 380C85.0184 383.535 87.0214 390.947 91.2091 391.872C94.1971 392.532 96.8245 391.047 100 392C101.277 390.085 101.277 390.915 100 389C105.474 389.792 109.637 387.309 115 387C116.277 385.085 116.277 385.915 115 384C117.622 384.133 118.446 384.1 120 382C121.879 382.939 123.09 381.697 124 382L124 383C126.855 384.427 126.11 383.89 128 382L128 384C129.872 378.59 124.689 371.608 122 367L118 368z"/>
<path style="fill:#5c6099; stroke:none;" d="M210 372L209 377C207.977 375.466 208.195 375.598 207 375C205.723 376.915 205.723 376.085 207 378C205.733 376.457 205.511 375.952 205 374C204.315 375.248 204.251 375.548 204 377C201.604 376.425 201.513 376.525 201 379C200.014 377.521 200 377.797 200 376L196 381C196.046 378.931 196.05 378.735 195 377C193.723 378.915 193.723 378.085 195 380L192 378L189 384C187.328 383.662 187.69 383.463 187 385C185.476 382.807 184.475 382.002 182 381C181.455 382.635 181.635 382.455 180 383L179 380C177.427 381.949 176.709 383.588 176 386C174.328 385.662 174.69 385.463 174 387C172.977 385.466 173.195 385.598 172 385C170.997 387.667 170.379 390.175 170 393C167.452 392.242 165.609 392.091 164 390C162.222 392.584 161.255 393.936 158 394C155.704 399.595 152.484 404.803 153 411C153.685 409.752 153.749 409.452 154 408C155.023 409.534 154.805 409.402 156 410L156 408L157 410C158.782 408.449 159.86 407.071 161 405C162.023 406.534 161.805 406.402 163 407C165.672 405.281 167.146 404.12 168 401L170 406C172.764 403.682 174.956 401.484 176 398C177.914 399.606 178.837 400.783 180 403C181.613 402.018 181.493 401.89 183 403L184 400C187.38 399.915 188.761 398.485 191 396L191 398C192.3 397.35 192 397.853 192 396L193 398C194.3 397.35 194 397.853 194 396C194.986 397.479 195 397.203 195 399C196.402 397.059 197.221 395.27 198 393L200 396L202 396C204.622 389.609 212.626 378.798 210 372z"/>
<path style="fill:#58689e; stroke:none;" d="M120 382C118.243 383.661 117.423 383.983 115 384L115 387C109.816 386.327 105.348 389.357 100 389L100 392C96.2863 390.589 93.7821 391.78 90 392C91.9021 398.551 96.0141 403.813 100 409C100.779 407.231 100.912 405.964 101 404L103 408C103.406 406.341 103.309 405.758 103 404C105.601 405.195 106.606 406.248 107 403C107.986 404.479 108 404.203 108 406C109.195 405.402 108.977 405.534 110 404L110 406C111.3 405.35 111 405.853 111 404C113.801 403.47 114.178 402.754 115 400L117 403C117.986 401.521 118 401.797 118 400C119.916 401.366 119.712 401.352 122 401L121 407C122.422 405.211 122.697 404.294 123 402L125 406C125.677 404.317 125.819 402.822 126 401C127.156 403.702 127.029 406.065 127 409C127.779 407.231 127.912 405.964 128 404C129.684 404.224 130.314 404.218 132 404C131.387 402.339 130.957 401.517 130 400L134 401C133.776 402.684 133.782 403.314 134 405C135.325 402.736 135.664 400.598 136 398L138 403C140.193 396.661 132.906 387.523 130 382C128.805 382.598 129.023 382.466 128 384L128 382C126.7 382.65 127 382.147 127 384C124.626 382.928 122.578 382.395 120 382z"/>
<path style="fill:#605c96; stroke:none;" d="M198 393C197.105 395.042 196.464 396.828 196 399C195.014 397.521 195 397.797 195 396C193.805 396.598 194.023 396.466 193 398L193 396C191.7 396.65 192 396.147 192 398L191 396C188.701 397.863 187.002 399.663 184 400C183.014 401.479 183 401.203 183 403C181.104 400.63 181.896 400.63 180 403C179.061 400.363 178.42 399.382 176 398C174.503 401.081 172.226 403.4 170 406L169 401C166.717 402.918 164.941 407.759 161 405L157 410L157 408C155.35 409.238 155.667 410.667 155 408C154.315 409.248 154.251 409.548 154 411L152 408C150.496 410.673 149.535 412.981 149 416C147.566 414.607 146.955 413.767 146 412C144.365 412.545 144.545 412.365 144 414L140 411L139 414C134.395 412.492 133.123 414.395 129.083 416.389C126.291 417.767 124.8 415.272 124 419C122.977 417.466 123.195 417.598 122 417C119.66 418.175 118.784 418.933 117 417C115.919 418.458 115.564 419.248 115 421C114.438 419.199 114.176 417.878 114 416C112.912 418.251 112.481 420.535 112 423C110.341 420.926 110.567 420.163 110 423L108 420C107.084 424.304 107.883 427.183 110 431C113.915 429.417 122.342 428.647 123 424C128.237 427.074 130.465 424.863 135.718 423.1C140.469 421.504 145.079 420.797 150 420C148.752 419.315 148.452 419.251 147 419C150.027 418.008 153.026 418.5 156.039 417.617C161.108 416.132 165.826 413.846 170.996 412.493C174.861 411.482 179.17 412.603 180 408C184.369 408.888 188.605 408.664 193 408C191.752 407.315 191.452 407.251 190 407C196.147 404.663 204.306 400.576 198 393z"/>
<path style="fill:#684c8d; stroke:none;" d="M306 395C306.598 396.195 306.466 395.977 308 397L301 399L300 396C295.808 398.395 290.776 400.913 286.039 401.901C282.112 402.72 274.572 402.66 272.14 406.458C268.816 411.646 271 422.996 271 429L274 429L275 428L274 426C277.578 426.478 282.194 423.974 285 425C286.3 424.35 286 424.853 286 423L287 425C288.3 424.35 288 424.853 288 423L290 423C290 424.853 289.7 424.35 291 425C293.205 422.996 296.269 422.209 299 421C298.402 419.805 298.534 420.023 297 419C298.314 418.232 298.232 418.314 299 417L302 421L304 418C305.186 419.036 305.604 419.339 307 420C307 417.633 308.889 416.979 310 419C312.907 412.072 311 401.497 311 394L306 395z"/>
<path style="fill:#5c6099; stroke:none;" d="M136 398L135 405C134.212 403.301 134.019 402.817 134 401L130 400L132 404L128 404L128 409C127.302 406.327 127.322 403.739 127 401C125.844 402.902 125.844 403.722 126 406C125.043 404.483 124.613 403.661 124 402C123.076 403.648 122.551 405.175 122 407C121.762 404.905 121.816 403.111 122 401C120.286 400.874 119.567 400.698 118 400L117 403C116.014 401.522 116 401.797 116 400L112 405L111 404L111 406L110 404C108.7 404.65 109 404.147 109 406C108.014 404.521 108 404.797 108 403C107.315 404.248 107.251 404.548 107 406C105.483 405.043 104.661 404.613 103 404L104 408C103.043 406.483 102.613 405.661 102 404C101.221 405.769 101.088 407.036 101 409C99.9774 407.466 100.195 407.598 99 407C98.9922 412.421 103.411 420.994 108 424L108 420C108.986 421.479 109 421.203 109 423C110.613 422.018 110.493 421.89 112 423C112.572 420.623 112.89 418.442 113 416C113.562 417.801 113.824 419.122 114 421C115.081 419.542 115.436 418.752 116 417C116.986 418.479 117 418.203 117 420C119.091 419.294 121.064 418.052 123 419L125 416C129.906 417.635 133.782 413.705 139 414C139.986 412.522 140 412.797 140 411L144 414C144.951 409.076 142.448 405.196 140 401C138.805 401.598 139.023 401.466 138 403C137.449 401.175 136.924 399.648 136 398z"/>
<path style="fill:#615893; stroke:none;" d="M190 406C191.248 406.685 191.548 406.749 193 407C188.746 408.47 184.459 408.485 180 408C179.073 412.036 175.341 410.938 171.94 411.778C163.184 413.939 155.976 417.285 147 418C148.248 418.685 148.548 418.749 150 419C146.716 420.287 143.37 420.342 139.996 421.289C133.557 423.098 129.471 426.742 123 424C123 427.552 115.157 429.351 112 429C111.168 433.309 112.843 436.285 115 440C116.195 438.777 116.316 438.58 117 437C118.713 438.647 119.694 438.631 120 441C120.685 439.752 120.749 439.452 121 438C122.915 439.277 122.085 439.277 124 438L123 436L124 435L125 437C126.3 436.35 126 436.853 126 435C126.986 436.479 127 436.203 127 438C128.015 436.861 128.309 436.388 129 435C129.957 436.517 130.387 437.339 131 439C132.685 436.451 133.481 434.007 134 431L136 433L140 431L139 435C140.081 433.542 140.436 432.752 141 431C143.415 431.914 144.645 431.246 145 434C146.938 432.421 147.667 430.367 150 432L151 427C151.986 428.479 152 428.203 152 430C153.195 429.402 152.977 429.534 154 428L155 431C156.732 429.022 157.402 427.566 158 425C159.688 425.689 160.069 425.676 161 427L163 424L164 427C165.195 426.402 164.977 426.534 166 425C166.545 426.635 166.365 426.455 168 427C168.986 425.521 169 425.797 169 424C172.018 425.207 171.276 422.105 172 425C172.911 423.623 173.404 422.56 174 421L177 422C178.539 418.923 178.279 422.603 179 419C181.655 420.007 182.33 419.992 185 419L185 423C186.063 421.031 186.532 419.202 187 417L189 420L191 420C193.043 415.019 195.518 410.183 197 405L190 406z"/>
<path style="fill:#645491; stroke:none;" d="M187 417L186 423L185 419C182.59 419.639 181.368 419.745 179 419C177.461 422.077 177.721 418.397 177 422C175.521 421.014 175.797 421 174 421L173 425C171.977 423.466 172.195 423.598 171 423C170.274 425.179 170.561 424.78 169 424L168 427C165.741 425.972 166.112 425.866 164 427C164 425.203 163.986 425.479 163 424C162.315 425.248 162.251 425.548 162 427C160.587 425.935 159.7 425.458 158 425L156 431C154.599 429.385 154.187 428.196 153 430C152.014 428.522 152 428.797 152 427C150.938 428.693 150.48 430.04 150 432C148.977 430.466 149.195 430.598 148 430C147.043 431.517 146.613 432.339 146 434C145.014 432.521 145 432.797 145 431L141 431L140 435C139.776 433.316 139.782 432.687 140 431C138.42 431.684 138.223 431.805 137 433C135.814 431.814 135.416 431.472 134 431L132 439L130 435C128.805 436.223 128.684 436.42 128 438C127.014 436.521 127 436.797 127 435C125.805 435.598 126.023 435.466 125 437C125 435.147 125.3 435.65 124 435L123 436L124 438C121.668 438.477 121.376 438.647 121 441C120.014 439.521 120 439.797 120 438C118.263 438.062 118.36 438.02 117 437C112.661 450.506 128.629 450.069 136 444C137.186 445.186 137.584 445.528 139 446C140.277 444.085 140.277 444.915 139 443C150.032 443.558 159.325 436.76 170 437C168.494 436.317 167.685 436.174 166 436L170 435C168.494 434.317 167.685 434.174 166 434C170.409 432.697 173.928 432.827 178 435C184.702 432.159 193.114 424.346 187 417z"/>
<path style="fill:#6c4588; stroke:none;" d="M299 417C297.359 419.734 296.326 418.861 299 421C297.304 421.283 296.263 422.79 295 423L295 422C293.946 422.351 292.941 423.765 292 424C291.394 424.151 291.628 421.859 291 425C289.051 423.763 288.949 423.763 287 425L287 423C285.7 423.65 286 423.147 286 425C284.977 423.466 285.195 423.598 284 423C280.604 425.318 278.104 426.096 274 426L274 429C269.066 429.62 271 439.914 271 444C272.396 443.339 272.814 443.036 274 442L275 446C276.225 443.987 276.645 442.341 277 440L280 440L280 443C280.685 441.752 280.749 441.452 281 440C282.023 441.534 281.805 441.402 283 442L284 438C286.45 438.174 287.695 437.906 290 437L290 441C290.779 439.231 290.912 437.964 291 436C293.213 436.053 294.122 434.57 296 433C296 434.797 296.014 434.521 297 436C298.081 434.542 298.436 433.752 299 432C300.577 433.928 302.123 434.592 304 436C305.285 432.958 305.85 430.297 306 427L308 434C309.819 432.636 309.031 432.508 311 433C311 427.6 311.258 422.282 310 417C307.716 417.828 306.973 417.784 307 420C304.54 418.639 303.611 417.931 303 421L299 417z"/>
<path style="fill:#703e84; stroke:none;" d="M306 427C305.724 430.161 304.958 432.979 304 436C302.507 435.001 302.734 435.032 301 435L300 432L297 436L296 433C293.013 433.996 293.51 434.484 292 437L291 436L291 441L290 437C287.906 437.604 286.17 438.023 284 438L283 442L282 440C281.315 441.248 281.251 441.548 281 443C280.014 441.521 280 441.797 280 440L277 440L276 446L274 442C269.24 446.528 271 454.915 271 461C273.044 460.159 273.282 459.797 275 461C277.879 457.873 281.065 457.245 285 456L284 453C286.165 453.145 286.183 453.157 288 452C288 453.797 288.014 453.521 289 455C292.339 453.278 295.294 452.513 299 452L296 449L302 452C302.303 449.706 302.578 448.789 304 447L303 451C305.51 450.231 307.435 450.505 310 451C311.491 446.921 311.051 442.356 311 438C310.968 435.237 311.114 431.838 308 434C307.519 431.535 307.088 429.251 306 427z"/>
<path style="fill:#684c8d; stroke:none;" d="M184 431L179 435C174.774 432.745 170.706 433 166 433C167.506 433.683 168.315 433.826 170 434L166 435C167.506 435.683 168.315 435.826 170 436C160.012 438.378 149.453 442.774 139 443L139 446L137 444C131.352 446.514 125.979 447.815 120 449L130 469C135.753 468.103 141.649 465.306 147 463C148.984 464.733 152.243 463.296 155 464L156 460C157.023 461.534 156.805 461.402 158 462C160.772 460.573 162.484 459.727 164 457C165.85 457.202 167.15 457.202 169 457C169 458.797 169.014 458.521 170 460C170.479 458.502 170.4 458.65 170 457L173 459C175.528 452.927 178.428 446.96 181.22 441C182.703 437.834 184.61 434.483 184 431z"/>
<path style="fill:#743880; stroke:none;" d="M302 447L302 452C299.997 450.727 298.223 449.828 296 449C296.98 450.783 296.908 450.594 299 451C295.358 452.37 292.243 452.659 289 455L288 452C286.393 453.004 285.965 453.197 284 453C284 454.797 284.014 454.521 285 456C280.923 456.7 277.244 457.318 275 461C273.977 459.466 274.195 459.598 273 459C269.699 465.185 271.73 471.453 273 478C273.685 476.752 273.749 476.452 274 475C275.608 476.45 276.064 477.051 277 479C277.911 477.623 278.404 476.56 279 475L281 479C282.081 477.542 282.436 476.752 283 475L285 479C287.689 475.619 287.962 472.227 288 468C288.722 470.418 288.948 472.472 289 475C289.779 473.231 289.912 471.964 290 470L291 474C291.683 472.494 291.826 471.685 292 470C292.857 471.707 292.982 472.109 293 474C295.67 473.466 295.443 474.785 296 472L297 474C298.081 472.542 298.436 471.752 299 470C300.023 471.534 299.805 471.402 301 472L302 467L303 471C303.685 469.752 303.749 469.452 304 468L305 472C306.151 470.326 306.585 469 307 467L308 471C312.029 464.615 311 457.267 311 450C308.385 450.293 305.629 448.949 304 451C303.776 449.316 303.782 448.686 304 447L302 447z"/>
<path style="fill:#6c4588; stroke:none;" d="M164 457C162.385 459.768 158.957 462.07 156 460L155 464C152.199 463.017 149.738 463.646 147 463L131 469C135.979 483.645 156.268 486.305 165.363 473.985C168.114 470.257 174.34 460.857 170 457L171 460C169.814 458.814 169.472 458.416 169 457L164 457z"/>
<path style="fill:#78307a; stroke:none;" d="M302 467L301 472C299.977 470.466 300.195 470.598 299 470L298 474C296.977 472.466 297.195 472.598 296 472C294.99 473.168 294.516 473.315 293 474C293.218 472.313 293.224 471.684 293 470C292.317 471.506 292.174 472.315 292 474L291 470C290.221 471.769 290.088 473.036 290 475C289.278 472.582 289.052 470.528 289 468C287.536 471.386 286.955 475.39 286 479L284 475C282.919 476.458 282.564 477.248 282 479L279 475L278 479C276.723 477.015 276.019 476.15 274 475C275.706 490.315 296.369 492.71 305.812 482.895C309.224 479.349 314.069 470.692 309 467L309 471L308 467C306.662 468.693 306.34 469.851 306 472L305 468C304.315 469.248 304.251 469.548 304 471L302 467z"/>
</svg>
